<svg width="120" height="124" viewBox="0 0 120 124" fill="none" xmlns="http://www.w3.org/2000/svg">
<g id="Group 31">
<g id="KR">
<path id="Vector" d="M58.6449 80.8031C58.3787 80.8031 58.2456 80.6534 58.2456 80.3539C58.2456 80.2873 58.2622 80.2208 58.2955 80.1542C58.2955 80.0877 58.3122 80.0045 58.3454 79.9046C58.5451 79.1393 58.9777 78.1077 59.6432 76.81C60.342 75.5122 61.1905 74.0647 62.1888 72.4674C63.2204 70.8369 64.3185 69.1731 65.4832 67.476C65.2835 66.7772 65.2003 66.2115 65.2336 65.7789C65.2669 65.4461 65.4832 65.0635 65.8825 64.6309C66.3151 64.165 66.781 63.7823 67.2801 63.4828C67.8125 63.1501 68.2285 63.017 68.528 63.0835C69.8257 61.3199 71.0403 59.706 72.1717 58.2418C73.3031 56.7777 74.2515 55.613 75.0168 54.7478C75.8154 53.8827 76.3146 53.4501 76.5142 53.4501C76.7804 53.4501 76.9801 53.5665 77.1132 53.7995C77.2463 54.0324 77.3129 54.2487 77.3129 54.4483C77.3129 54.4483 76.9136 54.9475 76.1149 55.9458C75.3496 56.9108 74.3346 58.2086 73.0702 59.8391C71.8389 61.4364 70.5245 63.2 69.1269 65.13C69.1602 65.1633 69.1768 65.2132 69.1768 65.2798C69.1768 65.3463 69.1935 65.4129 69.2268 65.4794L71.0237 65.3297C72.7208 65.1966 74.5177 64.8971 76.4144 64.4312C78.3112 63.9321 80.1746 63.3165 82.0048 62.5844C83.835 61.819 85.4655 60.9538 86.8964 59.9888C88.4937 58.8907 89.8081 57.7261 90.8396 56.4948C91.9045 55.2303 92.4369 54.0823 92.4369 53.0507C92.4369 52.0192 91.8213 51.1706 90.5901 50.5051C89.3589 49.8063 87.2791 49.4569 84.3508 49.4569C83.3525 49.4569 82.1213 49.5734 80.6571 49.8063C79.193 50.0393 77.6124 50.3554 75.9153 50.7547C74.2515 51.154 72.5876 51.6365 70.9238 52.2022C69.2933 52.7346 67.7959 53.317 66.4316 53.9492C65.1005 54.5815 64.0357 55.2303 63.237 55.8959C62.7046 56.3617 62.5216 56.7444 62.688 57.0439C62.7545 57.1437 62.7878 57.2436 62.7878 57.3434C62.7878 57.4099 62.7545 57.4432 62.688 57.4432C62.5882 57.4432 62.455 57.3933 62.2887 57.2935C61.7562 56.9607 61.3569 56.5447 61.0907 56.0456C60.8578 55.5132 60.7413 55.0307 60.7413 54.5981C60.7413 54.1988 60.8079 53.9326 60.941 53.7995C61.5399 52.9343 62.5216 52.1024 63.8859 51.3037C65.2835 50.5051 66.9141 49.773 68.7775 49.1075C70.641 48.442 72.6209 47.8597 74.7173 47.3605C76.8137 46.8614 78.8602 46.4787 80.8568 46.2125C82.8866 45.9463 84.7335 45.8132 86.3973 45.8132C87.7616 45.8132 88.9096 45.913 89.8414 46.1127C91.1391 46.3789 92.2372 47.0278 93.1357 48.0593C94.0342 49.0576 94.4834 50.2888 94.4834 51.753C94.4834 53.1173 93.9343 54.6147 92.8362 56.2453C91.7714 57.8758 89.9246 59.4564 87.2957 60.9871C85.8316 61.8523 84.1511 62.6676 82.2544 63.4329C80.3576 64.165 78.4276 64.7806 76.4643 65.2798C74.5343 65.7789 72.7374 66.0784 71.0736 66.1782C70.8074 66.2115 70.5412 66.2281 70.275 66.2281C70.0087 66.2281 69.7425 66.2281 69.4763 66.2281C70.0087 67.5592 70.8406 68.9401 71.972 70.371C73.1367 71.7686 74.4345 73.083 75.8654 74.3142C77.2962 75.5122 78.7271 76.4938 80.158 77.2592C81.5889 77.9913 82.8201 78.3573 83.8516 78.3573C84.6503 78.3573 85.3657 78.1743 85.998 77.8082C86.6635 77.4089 87.0462 76.8931 87.146 76.2609C87.146 76.1278 87.2125 76.0779 87.3456 76.1112C87.4787 76.1112 87.5287 76.1943 87.4954 76.3607C87.3623 77.5254 86.73 78.3739 85.5986 78.9064C84.4673 79.4388 83.2028 79.705 81.8052 79.705C80.0082 79.705 78.2945 79.3722 76.664 78.7067C75.0667 78.0412 73.5693 77.1926 72.1717 76.1611C70.8074 75.0962 69.6094 73.9482 68.5779 72.717C67.5796 71.4858 66.781 70.3045 66.182 69.1731C64.7511 71.2695 63.4201 73.2827 62.1888 75.2127C60.9909 77.1427 60.1423 78.74 59.6432 80.0045C59.5767 80.2374 59.4269 80.4204 59.194 80.5535C58.9943 80.7199 58.8113 80.8031 58.6449 80.8031Z" fill="black"/>
<path id="Vector_2" d="M46.8574 83.2489C46.691 83.2489 46.7076 83.0992 46.9073 82.7997C47.1402 82.5002 47.6893 81.9678 48.5544 81.2024C50.1184 79.8048 51.2665 78.3407 51.9985 76.81C52.7639 75.2793 53.1466 73.8151 53.1466 72.4175C53.1466 70.3211 52.3479 68.5408 50.7507 67.0767C49.1867 65.5793 46.9239 64.8305 43.9623 64.8305C42.1321 64.8305 40.069 65.1799 37.773 65.8787C36.4419 66.2781 35.5434 66.4777 35.0776 66.4777C34.8114 66.4777 34.6783 66.4112 34.6783 66.2781C34.6783 66.1782 34.8613 65.9453 35.2273 65.5793C36.0592 64.8139 37.2738 63.8156 38.8711 62.5844C40.4683 61.3199 42.2985 59.9556 44.3616 58.4914C46.458 57.0273 48.6376 55.5631 50.9004 54.099C53.1965 52.6015 55.4426 51.2206 57.6388 49.9561C59.8351 48.6916 61.8483 47.66 63.6785 46.8614C65.5419 46.0295 67.0727 45.547 68.2706 45.4139H68.5202C68.8862 45.4139 69.0692 45.5303 69.0692 45.7633C69.0692 46.1293 68.803 46.4288 68.2706 46.6617C65.3423 47.6933 62.3973 48.9911 59.4358 50.5551C56.4742 52.119 53.6291 53.7995 50.9004 55.5964C48.1718 57.36 45.6761 59.0904 43.4133 60.7875C41.1505 62.4513 39.2205 63.8822 37.6232 65.0801C40.8177 64.0486 43.746 63.5328 46.4081 63.5328C48.8373 63.5328 50.9171 63.8988 52.6474 64.6309C54.3778 65.363 55.7088 66.3446 56.6406 67.5758C57.5723 68.7738 58.0382 70.1215 58.0382 71.6189C58.0382 73.4491 57.2562 75.3458 55.6922 77.3091C54.1615 79.2724 51.699 81.0693 48.3049 82.6999C48.0054 82.833 47.7225 82.9494 47.4563 83.0493C47.1901 83.1824 46.9905 83.2489 46.8574 83.2489ZM24.2961 83.0992C24.163 83.0992 24.0964 82.9328 24.0964 82.6C24.0964 82.4337 24.1131 82.234 24.1463 82.0011C24.1796 81.8014 24.2628 81.5352 24.3959 81.2024C24.6621 80.4371 25.128 79.339 25.7935 77.9081C26.459 76.4772 27.241 74.83 28.1395 72.9666C29.0712 71.1031 30.0695 69.1564 31.1344 67.1266C32.2325 65.0968 33.3472 63.0835 34.4786 61.087C35.61 59.0904 36.6915 57.2436 37.723 55.5465C38.7879 53.8161 39.7363 52.352 40.5682 51.154C41.4333 49.9561 42.1321 49.1408 42.6646 48.7082C42.9973 48.442 43.4798 48.3089 44.1121 48.3089C44.4781 48.3089 44.8109 48.3755 45.1104 48.5086C45.4098 48.6417 45.5596 48.8746 45.5596 49.2074C45.5596 49.5069 45.3932 49.8729 45.0604 50.3055C44.2618 51.337 43.3467 52.5849 42.3152 54.0491C41.3169 55.4799 40.2687 56.994 39.1706 58.5913C38.1057 60.1885 37.0409 61.7858 35.976 63.383C34.9445 64.9803 33.9961 66.4611 33.1309 67.8254C32.0661 69.4892 30.968 71.2695 29.8366 73.1662C28.7385 75.0297 27.7235 76.7933 26.7918 78.4571C25.8934 80.121 25.2112 81.4853 24.7453 82.5501C24.6122 82.9162 24.4625 83.0992 24.2961 83.0992Z" fill="black"/>
</g>
<g id="Vector_3" filter="url(#filter0_d_1143_30)">
<path d="M16.4374 62.1477C16.1509 56.4136 17.2857 50.5896 19.3605 45.2363C20.7962 41.5319 22.8169 37.9343 25.15 34.9922C29.2484 29.8244 34.4982 25.6256 40.4785 22.7331C46.459 19.8406 53.0032 18.3345 59.5863 18.3359C66.1695 18.3376 72.6082 19.8466 78.3857 22.742C84.163 25.637 89.1186 29.8381 92.8545 35.0079C96.5903 40.1775 99.0025 46.1718 99.8974 52.5098C100.792 58.8478 100.145 65.3531 98.0077 71.5036C95.8703 77.654 91.9558 71.8195 87.2432 76.4665C93.5919 71.0109 98.6484 75.4331 101.182 67.6178C103.717 59.8025 104.033 54.4126 101.982 46.6143C99.9307 38.816 95.655 31.8124 89.6425 26.4026C83.6299 20.9925 76.1227 17.3943 67.9771 16.0178C59.8314 14.6414 51.3754 15.5423 43.5738 18.618C35.7722 21.6938 28.939 26.8201 23.8537 33.4127C18.7685 40.0052 17.2247 44.5769 15.1449 53.5892C14.2273 57.5654 14.2479 69.2338 20.4688 80.364C23.3256 85.4751 27.9253 89.3602 33.0929 92.1135C42.9061 97.3421 51.7257 99.5343 54.6603 99.3439C51.194 99.3439 40.7236 97.0553 28.3166 88.2519C19.962 82.3238 16.8605 70.6178 16.4374 62.1477Z" fill="black"/>
</g>
<g id="Real Estate">
<path id="Vector_4" d="M116.195 113.093C117.373 113.093 118.298 113.487 118.971 114.277C119.657 115.066 120 116.088 120 117.344C120 117.589 119.909 117.712 119.728 117.712H112.76C112.76 119.149 113.057 120.275 113.653 121.09C114.248 121.905 115.141 122.313 116.331 122.313C116.81 122.313 117.308 122.229 117.826 122.06C118.356 121.892 118.771 121.679 119.068 121.42C119.172 121.316 119.275 121.265 119.379 121.265C119.469 121.265 119.534 121.297 119.573 121.362L119.825 121.672C119.489 122.086 118.971 122.416 118.272 122.662C117.587 122.908 116.914 123.031 116.254 123.031C114.817 123.031 113.717 122.559 112.954 121.614C112.203 120.656 111.828 119.414 111.828 117.887C111.828 116.968 112.003 116.147 112.352 115.422C112.714 114.697 113.225 114.128 113.885 113.714C114.545 113.3 115.315 113.093 116.195 113.093ZM116.215 113.791C115.231 113.791 114.442 114.089 113.847 114.684C113.264 115.267 112.915 116.075 112.798 117.111H119.165C119.165 116.101 118.894 115.299 118.35 114.704C117.819 114.095 117.108 113.791 116.215 113.791Z" fill="black"/>
<path id="Vector_5" d="M108.228 123.07C107.542 123.07 107.024 122.882 106.675 122.507C106.325 122.119 106.151 121.569 106.151 120.857V114.257H104.773C104.695 114.257 104.63 114.238 104.578 114.199C104.54 114.16 104.52 114.102 104.52 114.024V113.675L106.17 113.558L106.403 110.103C106.403 110.051 106.423 110 106.461 109.948C106.513 109.896 106.571 109.87 106.636 109.87H107.083V113.558H110.13V114.257H107.083V120.799C107.083 121.278 107.199 121.653 107.432 121.925C107.678 122.183 108.008 122.313 108.422 122.313C108.81 122.313 109.25 122.132 109.742 121.769C109.82 121.73 109.878 121.711 109.917 121.711C110.007 121.711 110.078 121.75 110.13 121.828L110.344 122.177C110.098 122.449 109.774 122.669 109.373 122.837C108.985 122.992 108.603 123.07 108.228 123.07Z" fill="black"/>
<path id="Vector_6" d="M102.973 122.177C103.232 122.203 103.362 122.319 103.362 122.526V122.915H101.712C101.505 122.915 101.382 122.824 101.343 122.643L101.207 121.401C100.56 122.009 99.9777 122.442 99.46 122.701C98.9553 122.947 98.3342 123.07 97.5966 123.07C96.8201 123.07 96.1925 122.85 95.7137 122.41C95.2478 121.957 95.0149 121.342 95.0149 120.566C95.0149 119.531 95.636 118.786 96.8784 118.334C98.1207 117.881 99.5506 117.648 101.168 117.635V116.625C101.168 115.72 100.974 115.034 100.586 114.568C100.211 114.089 99.6412 113.85 98.8777 113.85C98.4118 113.85 97.9395 113.953 97.4607 114.16C96.9819 114.354 96.6001 114.594 96.3154 114.878C96.1731 115.021 96.0372 115.092 95.9078 115.092C95.8043 115.092 95.7202 115.034 95.6555 114.917L95.5002 114.626C96.0178 114.108 96.5548 113.727 97.1113 113.481C97.6807 113.222 98.3018 113.093 98.9748 113.093C99.9971 113.093 100.767 113.416 101.285 114.063C101.815 114.697 102.081 115.551 102.081 116.625V122.158L102.973 122.177ZM101.168 118.256C99.7706 118.269 98.5412 118.45 97.4801 118.799C96.4319 119.136 95.9078 119.718 95.9078 120.546C95.9078 121.129 96.076 121.582 96.4125 121.905C96.7619 122.229 97.2342 122.39 97.8295 122.39C98.5412 122.39 99.13 122.268 99.5959 122.022C100.062 121.763 100.586 121.342 101.168 120.76V118.256Z" fill="black"/>
<path id="Vector_7" d="M91.3757 123.07C90.6899 123.07 90.1722 122.882 89.8228 122.507C89.4734 122.119 89.2988 121.569 89.2988 120.857V114.257H87.9206C87.8429 114.257 87.7782 114.238 87.7264 114.199C87.6876 114.16 87.6682 114.102 87.6682 114.024V113.675L89.3182 113.558L89.5511 110.103C89.5511 110.051 89.5705 110 89.6093 109.948C89.6611 109.896 89.7193 109.87 89.784 109.87H90.2305V113.558H93.278V114.257H90.2305V120.799C90.2305 121.278 90.347 121.653 90.5799 121.925C90.8258 122.183 91.1557 122.313 91.5699 122.313C91.9581 122.313 92.3981 122.132 92.8898 121.769C92.9675 121.73 93.0257 121.711 93.0645 121.711C93.1551 121.711 93.2263 121.75 93.278 121.828L93.4915 122.177C93.2457 122.449 92.9222 122.669 92.521 122.837C92.1328 122.992 91.751 123.07 91.3757 123.07Z" fill="black"/>
<path id="Vector_8" d="M86.5861 120.081C86.5861 120.986 86.2626 121.711 85.6155 122.255C84.9814 122.798 84.1726 123.07 83.1891 123.07C82.2574 123.07 81.3062 122.889 80.3357 122.526V120.178H80.8016C81.0733 120.178 81.2157 120.333 81.2286 120.643L81.3451 122.08C81.8498 122.287 82.4774 122.39 83.2279 122.39C83.9397 122.39 84.5285 122.196 84.9944 121.808C85.4732 121.42 85.7126 120.896 85.7126 120.236C85.7126 119.705 85.4926 119.304 85.0526 119.032C84.6256 118.748 83.9462 118.469 83.0144 118.198C82.1345 117.952 81.468 117.648 81.0151 117.285C80.5622 116.91 80.3357 116.386 80.3357 115.713C80.3357 115.195 80.478 114.743 80.7627 114.354C81.0604 113.953 81.4486 113.649 81.9274 113.442C82.4192 113.222 82.9497 113.112 83.5191 113.112C84.2567 113.112 85.1108 113.28 86.0814 113.617V115.927H85.6155C85.3567 115.927 85.2144 115.771 85.1885 115.461L85.072 114.063C84.5673 113.895 84.0562 113.811 83.5385 113.811C82.9044 113.811 82.3544 113.979 81.8886 114.315C81.4357 114.652 81.2092 115.098 81.2092 115.655C81.2092 116.004 81.3192 116.295 81.5392 116.528C81.7592 116.761 82.0439 116.955 82.3933 117.111C82.7556 117.253 83.2538 117.415 83.8879 117.596C84.742 117.842 85.402 118.159 85.8679 118.547C86.3467 118.922 86.5861 119.434 86.5861 120.081Z" fill="black"/>
<path id="Vector_9" d="M77.8302 112.006H77.3449C77.0991 112.006 76.9632 111.85 76.9373 111.54L76.8597 109.987H70.5899V115.558H76.0638V116.354H70.5899V122.08H76.8597L76.9373 120.546C76.9632 120.223 77.0991 120.061 77.3449 120.061H77.8302V122.915H67.9694V122.526C67.9694 122.306 68.0923 122.19 68.3382 122.177L69.5999 122.138V109.929L68.3382 109.89C68.0794 109.864 67.95 109.747 67.95 109.54V109.172H77.8302V112.006Z" fill="black"/>
<path id="Vector_10" d="M61.1656 122.177C61.4244 122.203 61.5538 122.319 61.5538 122.526V122.915H57.8269V122.526C57.8269 122.319 57.9563 122.203 58.2151 122.177L59.2245 122.138V109.56L58.2151 109.521C57.9563 109.495 57.8269 109.379 57.8269 109.172V108.783H60.1562V122.138L61.1656 122.177Z" fill="black"/>
<path id="Vector_11" d="M55.6588 122.177C55.9176 122.203 56.047 122.319 56.047 122.526V122.915H54.397C54.19 122.915 54.067 122.824 54.0282 122.643L53.8923 121.401C53.2453 122.009 52.663 122.442 52.1453 122.701C51.6407 122.947 51.0195 123.07 50.2819 123.07C49.5054 123.07 48.8778 122.85 48.399 122.41C47.9331 121.957 47.7002 121.342 47.7002 120.566C47.7002 119.531 48.3214 118.786 49.5637 118.334C50.806 117.881 52.2359 117.648 53.8535 117.635V116.625C53.8535 115.72 53.6594 115.034 53.2712 114.568C52.8959 114.089 52.3265 113.85 51.563 113.85C51.0971 113.85 50.6248 113.953 50.146 114.16C49.6672 114.354 49.2854 114.594 49.0007 114.878C48.8584 115.021 48.7225 115.092 48.5931 115.092C48.4896 115.092 48.4055 115.034 48.3408 114.917L48.1855 114.626C48.7031 114.108 49.2401 113.727 49.7966 113.481C50.366 113.222 50.9871 113.093 51.6601 113.093C52.6824 113.093 53.4524 113.416 53.97 114.063C54.5006 114.697 54.7658 115.551 54.7658 116.625V122.158L55.6588 122.177ZM53.8535 118.256C52.4559 118.269 51.2265 118.45 50.1654 118.799C49.1172 119.136 48.5931 119.718 48.5931 120.546C48.5931 121.129 48.7613 121.582 49.0978 121.905C49.4472 122.229 49.9195 122.39 50.5148 122.39C51.2265 122.39 51.8154 122.268 52.2812 122.022C52.7471 121.763 53.2712 121.342 53.8535 120.76V118.256Z" fill="black"/>
<path id="Vector_12" d="M42.3802 113.093C43.5578 113.093 44.4831 113.487 45.156 114.277C45.8418 115.066 46.1848 116.088 46.1848 117.344C46.1848 117.589 46.0942 117.712 45.913 117.712H38.9444C38.9444 119.149 39.2421 120.275 39.8373 121.09C40.4326 121.905 41.3255 122.313 42.5161 122.313C42.9949 122.313 43.4931 122.229 44.0107 122.06C44.5413 121.892 44.9554 121.679 45.253 121.42C45.3566 121.316 45.4601 121.265 45.5636 121.265C45.6542 121.265 45.7189 121.297 45.7577 121.362L46.0101 121.672C45.6736 122.086 45.156 122.416 44.4572 122.662C43.7713 122.908 43.0984 123.031 42.4384 123.031C41.002 123.031 39.902 122.559 39.1385 121.614C38.388 120.656 38.0127 119.414 38.0127 117.887C38.0127 116.968 38.1874 116.147 38.5368 115.422C38.8991 114.697 39.4103 114.128 40.0703 113.714C40.7303 113.3 41.5002 113.093 42.3802 113.093ZM42.3996 113.791C41.4161 113.791 40.6267 114.089 40.0315 114.684C39.4491 115.267 39.0997 116.075 38.9833 117.111H45.3501C45.3501 116.101 45.0783 115.299 44.5348 114.704C44.0043 114.095 43.2925 113.791 42.3996 113.791Z" fill="black"/>
<path id="Vector_13" d="M36.2117 122.177C36.4576 122.19 36.5805 122.306 36.5805 122.526V122.915H35.2217C35.1052 122.915 35.0082 122.895 34.9305 122.856C34.8658 122.805 34.8011 122.74 34.7364 122.662L30.3301 117.091C30.1878 116.923 30.0584 116.819 29.9419 116.781C29.8254 116.729 29.6442 116.703 29.3984 116.703H27.7678V122.138L29.0102 122.177C29.269 122.203 29.3984 122.319 29.3984 122.526V122.915H25.1279V122.526C25.1279 122.319 25.2573 122.203 25.5162 122.177L26.7779 122.138V109.929L25.5162 109.89C25.2703 109.877 25.1473 109.76 25.1473 109.54V109.172H30.1166C31.6048 109.172 32.763 109.463 33.5912 110.045C34.4194 110.614 34.8335 111.527 34.8335 112.782C34.8335 113.843 34.4711 114.717 33.7465 115.402C33.0218 116.088 32.0836 116.483 30.9319 116.587C31.1001 116.69 31.2424 116.819 31.3589 116.975L35.4741 122.158L36.2117 122.177ZM29.9807 115.965C31.1583 115.965 32.0965 115.694 32.7953 115.15C33.5071 114.607 33.8629 113.843 33.8629 112.86C33.8629 110.919 32.6142 109.948 30.1166 109.948H27.7678V115.965H29.9807Z" fill="black"/>
</g>
</g>
<defs>
<filter id="filter0_d_1143_30" x="11.7102" y="12.391" width="96.6167" height="91.9643" filterUnits="userSpaceOnUse" color-interpolation-filters="sRGB">
<feFlood flood-opacity="0" result="BackgroundImageFix"/>
<feColorMatrix in="SourceAlpha" type="matrix" values="0 0 0 0 0 0 0 0 0 0 0 0 0 0 0 0 0 0 127 0" result="hardAlpha"/>
<feOffset dx="1" dy="1"/>
<feGaussianBlur stdDeviation="2"/>
<feComposite in2="hardAlpha" operator="out"/>
<feColorMatrix type="matrix" values="0 0 0 0 0 0 0 0 0 0 0 0 0 0 0 0 0 0 0.25 0"/>
<feBlend mode="normal" in2="BackgroundImageFix" result="effect1_dropShadow_1143_30"/>
<feBlend mode="normal" in="SourceGraphic" in2="effect1_dropShadow_1143_30" result="shape"/>
</filter>
</defs>
</svg>
