<svg width="232" height="97" viewBox="0 0 232 97" fill="none" xmlns="http://www.w3.org/2000/svg">
<path d="M16.795 62.0421C16.675 62.0421 16.687 61.9341 16.831 61.7181C16.999 61.5021 17.395 61.1181 18.019 60.5661C19.147 59.5581 19.975 58.5021 20.503 57.3981C21.055 56.2941 21.331 55.2381 21.331 54.2301C21.331 52.7181 20.755 51.4341 19.603 50.3781C18.475 49.2981 16.843 48.7581 14.707 48.7581C13.387 48.7581 11.899 49.0101 10.243 49.5141C9.28304 49.8021 8.63504 49.9461 8.29904 49.9461C8.10704 49.9461 8.01104 49.8981 8.01104 49.8021C8.01104 49.7301 8.14304 49.5621 8.40703 49.2981C9.00704 48.7461 9.88304 48.0261 11.035 47.1381C12.187 46.2261 13.507 45.2421 14.995 44.1861C16.507 43.1301 18.079 42.0741 19.711 41.0181C21.367 39.9381 22.987 38.9421 24.571 38.0301C26.155 37.1181 27.607 36.3741 28.927 35.7981C30.271 35.1981 31.375 34.8501 32.239 34.7541H32.419C32.683 34.7541 32.815 34.8381 32.815 35.0061C32.815 35.2701 32.623 35.4861 32.239 35.6541C30.127 36.3981 28.003 37.3341 25.867 38.4621C23.731 39.5901 21.679 40.8021 19.711 42.0981C17.743 43.3701 15.943 44.6181 14.311 45.8421C12.679 47.0421 11.287 48.0741 10.135 48.9381C12.439 48.1941 14.551 47.8221 16.471 47.8221C18.223 47.8221 19.723 48.0861 20.971 48.6141C22.219 49.1421 23.179 49.8501 23.851 50.7381C24.523 51.6021 24.859 52.5741 24.859 53.6541C24.859 54.9741 24.295 56.3421 23.167 57.7581C22.063 59.1741 20.287 60.4701 17.839 61.6461C17.623 61.7421 17.419 61.8261 17.227 61.8981C17.035 61.9941 16.891 62.0421 16.795 62.0421ZM0.523035 61.9341C0.427035 61.9341 0.379035 61.8141 0.379035 61.5741C0.379035 61.4541 0.391035 61.3101 0.415035 61.1421C0.439035 60.9981 0.499035 60.8061 0.595035 60.5661C0.787035 60.0141 1.12303 59.2221 1.60303 58.1901C2.08303 57.1581 2.64703 55.9701 3.29503 54.6261C3.96703 53.2821 4.68703 51.8781 5.45503 50.4141C6.24703 48.9501 7.05103 47.4981 7.86703 46.0581C8.68304 44.6181 9.46304 43.2861 10.207 42.0621C10.975 40.8141 11.659 39.7581 12.259 38.8941C12.883 38.0301 13.387 37.4421 13.771 37.1301C14.011 36.9381 14.359 36.8421 14.815 36.8421C15.079 36.8421 15.319 36.8901 15.535 36.9861C15.751 37.0821 15.859 37.2501 15.859 37.4901C15.859 37.7061 15.739 37.9701 15.499 38.2821C14.923 39.0261 14.263 39.9261 13.519 40.9821C12.799 42.0141 12.043 43.1061 11.251 44.2581C10.483 45.4101 9.71504 46.5621 8.94703 47.7141C8.20303 48.8661 7.51903 49.9341 6.89504 50.9181C6.12703 52.1181 5.33503 53.4021 4.51903 54.7701C3.72703 56.1141 2.99503 57.3861 2.32303 58.5861C1.67503 59.7861 1.18303 60.7701 0.847035 61.5381C0.751035 61.8021 0.643035 61.9341 0.523035 61.9341ZM28.2679 58.9101C27.5239 58.9101 26.9479 58.6821 26.5399 58.2261C26.1319 57.7461 25.9279 57.1341 25.9279 56.3901C25.9279 55.6941 26.1079 54.9261 26.4679 54.0861C26.8519 53.2461 27.4519 52.3941 28.2679 51.5301C29.1079 50.6181 30.1519 49.8861 31.3999 49.3341C32.6479 48.7581 33.8359 48.4701 34.9639 48.4701C35.8759 48.4701 36.6559 48.6741 37.3039 49.0821C37.9519 49.4661 38.3839 49.9581 38.5999 50.5581C38.8639 50.5581 39.1879 50.6301 39.5719 50.7741C39.9799 50.9181 40.1839 51.1821 40.1839 51.5661C40.1839 51.8301 40.0519 52.1301 39.7879 52.4661C39.6199 52.7061 39.3199 53.0661 38.8879 53.5461C38.4799 54.0261 38.0959 54.5421 37.7359 55.0941C37.4479 55.5261 37.2199 55.9341 37.0519 56.3181C36.8839 56.6781 36.7999 56.9901 36.7999 57.2541C36.7999 57.6141 36.9799 57.7941 37.3399 57.7941C37.7479 57.7941 38.3599 57.5661 39.1759 57.1101C40.0639 56.6061 40.9159 56.0301 41.7319 55.3821C42.5479 54.7341 43.1839 54.2181 43.6399 53.8341C43.7599 53.7381 43.8439 53.6901 43.8919 53.6901C43.9879 53.6901 44.0359 53.7501 44.0359 53.8701C44.0359 54.0141 43.9759 54.1461 43.8559 54.2661C43.6399 54.4581 43.2199 54.8181 42.5959 55.3461C41.9719 55.8741 41.2519 56.4261 40.4359 57.0021C39.6439 57.5781 38.8639 58.0461 38.0959 58.4061C37.7119 58.5741 37.3519 58.7061 37.0159 58.8021C36.7039 58.8741 36.4159 58.9101 36.1519 58.9101C35.5039 58.9101 35.0119 58.7301 34.6759 58.3701C34.3399 57.9861 34.1719 57.4941 34.1719 56.8941C34.1719 56.6541 34.2079 56.4021 34.2799 56.1381C34.3519 55.8741 34.4359 55.6101 34.5319 55.3461L34.7839 54.7341C34.1599 55.5021 33.5359 56.1501 32.9119 56.6781C32.2879 57.1821 31.6639 57.6261 31.0399 58.0101C30.5119 58.3221 30.0079 58.5501 29.5279 58.6941C29.0719 58.8381 28.6519 58.9101 28.2679 58.9101ZM29.3839 57.9741C29.8159 57.9741 30.4399 57.7221 31.2559 57.2181C32.0719 56.6901 33.0199 55.8861 34.0999 54.8061C34.2439 54.6621 34.5079 54.4101 34.8919 54.0501C35.2999 53.6661 35.7319 53.2461 36.1879 52.7901C36.6439 52.3101 37.0279 51.8421 37.3399 51.3861C37.6759 50.9061 37.8439 50.5101 37.8439 50.1981C37.8439 49.7421 37.4479 49.5141 36.6559 49.5141C35.9599 49.5141 35.1199 49.7901 34.1359 50.3421C33.1759 50.8701 32.2519 51.6621 31.3639 52.7181C30.4519 53.7981 29.7799 54.7341 29.3479 55.5261C28.9399 56.2941 28.7359 56.8821 28.7359 57.2901C28.7359 57.7461 28.9519 57.9741 29.3839 57.9741ZM45.935 59.4861C45.167 59.4861 44.579 59.2581 44.171 58.8021C43.763 58.3461 43.559 57.7101 43.559 56.8941C43.559 56.1261 43.763 55.2261 44.171 54.1941L44.243 54.0141L43.595 54.6261C43.499 54.7221 43.391 54.7701 43.271 54.7701C43.151 54.7701 43.091 54.7221 43.091 54.6261C43.091 54.5061 43.175 54.3621 43.343 54.1941C43.967 53.6421 44.603 53.0661 45.251 52.4661C45.923 51.8421 46.487 51.2541 46.943 50.7021C46.775 50.7741 46.595 50.8101 46.403 50.8101C46.211 50.8101 46.067 50.7621 45.971 50.6661C45.803 50.5461 45.719 50.3301 45.719 50.0181C45.719 49.7541 45.839 49.4781 46.079 49.1901C46.343 48.9021 46.871 48.6501 47.663 48.4341C47.831 48.3861 47.999 48.3501 48.167 48.3261C48.359 48.3021 48.539 48.2781 48.707 48.2541C49.475 47.1741 50.147 46.1781 50.723 45.2661C51.299 44.3301 51.755 43.7061 52.091 43.3941C52.235 43.2261 52.487 43.0821 52.847 42.9621C53.231 42.8421 53.627 42.7461 54.035 42.6741C54.467 42.6021 54.803 42.5661 55.043 42.5661C55.835 42.5661 56.231 42.6381 56.231 42.7821C56.231 42.8781 56.051 43.1061 55.691 43.4661C55.091 44.0421 54.383 44.7621 53.567 45.6261C52.775 46.4661 51.959 47.3781 51.119 48.3621C51.815 48.4581 52.451 48.6381 53.027 48.9021C53.627 49.1661 54.059 49.5021 54.323 49.9101C54.419 50.0301 54.467 50.1741 54.467 50.3421C54.467 50.5341 54.407 50.6301 54.287 50.6301C54.191 50.6301 54.083 50.5701 53.963 50.4501C53.459 49.9461 52.619 49.6941 51.443 49.6941C51.203 49.6941 50.951 49.7061 50.687 49.7301C50.447 49.7541 50.195 49.7901 49.931 49.8381C49.115 50.8941 48.371 51.9501 47.699 53.0061C47.027 54.0621 46.547 55.0461 46.259 55.9581C46.115 56.3901 46.043 56.7861 46.043 57.1461C46.043 57.5061 46.127 57.8061 46.295 58.0461C46.463 58.2621 46.715 58.3701 47.051 58.3701C47.267 58.3701 47.531 58.3101 47.843 58.1901C48.299 58.0221 48.827 57.7461 49.427 57.3621C50.027 56.9541 50.627 56.4981 51.227 55.9941C51.851 55.4901 52.427 54.9981 52.955 54.5181C53.507 54.0381 53.963 53.6301 54.323 53.2941C54.683 52.9581 54.887 52.7661 54.935 52.7181C55.007 52.6461 55.067 52.6101 55.115 52.6101C55.211 52.6101 55.259 52.6821 55.259 52.8261C55.259 52.9941 55.187 53.1501 55.043 53.2941C54.803 53.5341 54.431 53.8941 53.927 54.3741C53.447 54.8541 52.883 55.3941 52.235 55.9941C51.611 56.5701 50.939 57.1221 50.219 57.6501C49.499 58.1781 48.767 58.6101 48.023 58.9461C47.303 59.3061 46.607 59.4861 45.935 59.4861ZM61.5045 58.9101C60.9045 58.9101 60.4245 58.7421 60.0645 58.4061C59.7285 58.0701 59.5605 57.6141 59.5605 57.0381C59.5605 56.6781 59.6445 56.2701 59.8125 55.8141C59.9805 55.3581 60.2445 54.8901 60.6045 54.4101C61.1565 53.6661 61.6845 53.0181 62.1885 52.4661C62.6925 51.8901 63.0645 51.3741 63.3045 50.9181C63.5445 50.4861 63.6645 50.1501 63.6645 49.9101C63.6645 49.5501 63.4485 49.3701 63.0165 49.3701C62.6325 49.3701 62.0805 49.5861 61.3605 50.0181C60.6645 50.4261 59.9325 51.0981 59.1645 52.0341C58.7325 52.5621 58.2405 53.1861 57.6885 53.9061C57.1365 54.6021 56.6925 55.2501 56.3565 55.8501C56.2125 56.1141 56.0685 56.3901 55.9245 56.6781C55.8045 56.9421 55.6125 57.3981 55.3485 58.0461C55.2765 58.2141 55.0725 58.3941 54.7365 58.5861C54.4245 58.7781 54.1725 58.8741 53.9805 58.8741C53.8365 58.8741 53.7645 58.8141 53.7645 58.6941C53.7645 58.5981 53.8005 58.4781 53.8725 58.3341C53.9925 58.1181 54.2565 57.4341 54.6645 56.2821C55.0965 55.1301 55.6365 53.7741 56.2845 52.2141C55.9245 52.5981 55.5285 53.0181 55.0965 53.4741C54.6645 53.9061 54.1845 54.3261 53.6565 54.7341C53.5605 54.8301 53.4525 54.8781 53.3325 54.8781C53.1885 54.8781 53.1165 54.8181 53.1165 54.6981C53.1165 54.6021 53.2245 54.4701 53.4405 54.3021C53.9925 53.8221 54.5445 53.3181 55.0965 52.7901C55.6485 52.2381 56.2485 51.5541 56.8965 50.7381C57.1125 50.2101 57.4965 49.4541 58.0485 48.4701C58.6005 47.4621 59.2605 46.3461 60.0285 45.1221C60.7965 43.8981 61.6485 42.6741 62.5845 41.4501C63.5205 40.2261 64.4805 39.1341 65.4645 38.1741C66.3525 37.3101 67.2765 36.6501 68.2365 36.1941C69.2205 35.7381 70.1085 35.5101 70.9005 35.5101C71.5965 35.5101 72.1605 35.6781 72.5925 36.0141C73.0245 36.3501 73.2405 36.8901 73.2405 37.6341C73.2405 38.3781 73.0365 39.1701 72.6285 40.0101C72.2205 40.8501 71.7885 41.5221 71.3325 42.0261C70.3005 43.1781 69.0765 44.2341 67.6605 45.1941C66.2685 46.1541 64.8045 46.9701 63.2685 47.6421C63.2205 47.6661 63.1725 47.6901 63.1245 47.7141C63.0765 47.7141 63.0285 47.7141 62.9805 47.7141C62.8125 47.7141 62.7285 47.6541 62.7285 47.5341C62.7285 47.3901 62.8605 47.2701 63.1245 47.1741C64.0365 46.7661 64.9605 46.2621 65.8965 45.6621C66.8565 45.0621 67.7445 44.4141 68.5605 43.7181C69.3765 43.0221 70.0605 42.3261 70.6125 41.6301C71.2605 40.8141 71.6805 40.1541 71.8725 39.6501C72.0645 39.1221 72.1605 38.6781 72.1605 38.3181C72.1605 37.8381 71.8965 37.5981 71.3685 37.5981C71.1285 37.5981 70.7805 37.7181 70.3245 37.9581C69.8685 38.1741 69.3285 38.5341 68.7045 39.0381C67.7445 39.8061 66.7485 40.7421 65.7165 41.8461C64.7085 42.9501 63.7125 44.1501 62.7285 45.4461C61.7685 46.7421 60.8565 48.0621 59.9925 49.4061C59.1285 50.7501 58.3485 52.0581 57.6525 53.3301C57.9405 52.9221 58.2405 52.5141 58.5525 52.1061C58.8645 51.6741 59.1765 51.2901 59.4885 50.9541C60.2085 50.1621 60.9165 49.5861 61.6125 49.2261C62.3085 48.8661 62.9325 48.6861 63.4845 48.6861C64.1085 48.6861 64.6125 48.8781 64.9965 49.2621C65.3805 49.6221 65.5725 50.1141 65.5725 50.7381C65.5725 51.0741 65.5125 51.4101 65.3925 51.7461C65.2965 52.0581 65.1765 52.3461 65.0325 52.6101C64.8405 53.0181 64.5885 53.4981 64.2765 54.0501C63.9645 54.6021 63.6645 55.1181 63.3765 55.5981C62.8245 56.4861 62.5485 57.1221 62.5485 57.5061C62.5485 57.7221 62.6445 57.8301 62.8365 57.8301C63.0765 57.8301 63.4725 57.6621 64.0245 57.3261C64.4565 57.0621 64.9365 56.7261 65.4645 56.3181C66.0165 55.8861 66.5565 55.4421 67.0845 54.9861C67.6365 54.5301 68.1045 54.1341 68.4885 53.7981C68.8965 53.4381 69.1605 53.1981 69.2805 53.0781C69.4245 52.9341 69.5325 52.8621 69.6045 52.8621C69.6765 52.8621 69.7125 52.8981 69.7125 52.9701C69.7125 53.0901 69.6285 53.2581 69.4605 53.4741C68.8365 54.1221 68.0565 54.8541 67.1205 55.6701C66.1845 56.4861 65.1285 57.2781 63.9525 58.0461C63.4965 58.3581 63.0525 58.5861 62.6205 58.7301C62.2125 58.8501 61.8405 58.9101 61.5045 58.9101ZM71.89 59.2341C70.834 59.2341 69.946 58.9821 69.226 58.4781C68.53 57.9501 68.182 57.1941 68.182 56.2101C68.182 55.1541 68.434 54.1701 68.938 53.2581C69.442 52.3461 70.114 51.5541 70.954 50.8821C71.794 50.1861 72.706 49.6461 73.69 49.2621C74.698 48.8781 75.694 48.6861 76.678 48.6861C77.662 48.6861 78.394 48.8661 78.874 49.2261C79.354 49.5621 79.594 49.9821 79.594 50.4861C79.594 50.9661 79.366 51.4821 78.91 52.0341C78.478 52.5621 77.842 53.0301 77.002 53.4381C76.474 53.6781 75.862 53.8941 75.166 54.0861C74.494 54.2541 73.906 54.3381 73.402 54.3381C73.018 54.3381 72.826 54.2781 72.826 54.1581C72.826 54.0621 72.994 54.0141 73.33 54.0141C73.642 54.0141 74.122 53.9301 74.77 53.7621C75.442 53.5701 76.09 53.3181 76.714 53.0061C77.41 52.6221 77.902 52.2381 78.19 51.8541C78.478 51.4701 78.622 51.1221 78.622 50.8101C78.622 50.5221 78.502 50.2821 78.262 50.0901C78.046 49.8981 77.734 49.8021 77.326 49.8021C76.942 49.8021 76.51 49.9101 76.03 50.1261C75.334 50.4381 74.614 50.9541 73.87 51.6741C73.15 52.3701 72.55 53.1381 72.07 53.9781C71.59 54.8181 71.35 55.6221 71.35 56.3901C71.35 56.9181 71.494 57.3621 71.782 57.7221C72.094 58.0821 72.55 58.2621 73.15 58.2621C73.774 58.2621 74.494 58.0701 75.31 57.6861C76.126 57.2781 76.954 56.7861 77.794 56.2101C78.634 55.6101 79.414 55.0101 80.134 54.4101C80.854 53.8101 81.43 53.3061 81.862 52.8981C82.006 52.7541 82.114 52.6821 82.186 52.6821C82.258 52.6821 82.294 52.7421 82.294 52.8621C82.294 53.0301 82.222 53.1741 82.078 53.2941C81.166 54.1341 80.17 55.0101 79.09 55.9221C78.034 56.8341 76.894 57.6141 75.67 58.2621C74.47 58.8861 73.21 59.2101 71.89 59.2341ZM86.1824 58.9101C85.1504 58.9101 84.4544 58.7181 84.0944 58.3341C83.7344 57.9261 83.5544 57.4821 83.5544 57.0021C83.5544 56.3781 83.7944 55.7181 84.2744 55.0221C84.5624 54.6141 84.8864 54.1581 85.2464 53.6541C85.6064 53.1261 85.9424 52.6341 86.2544 52.1781C86.5664 51.7221 86.7824 51.3981 86.9024 51.2061C87.0704 50.9661 87.1664 50.8101 87.1904 50.7381C87.2384 50.6421 87.2624 50.5461 87.2624 50.4501C87.2624 50.3061 87.1664 50.1741 86.9744 50.0541C86.8064 49.9101 86.5184 49.8381 86.1104 49.8381C85.9904 49.8381 85.8824 49.8501 85.7864 49.8741C85.7144 49.8741 85.6304 49.8741 85.5344 49.8741C85.3424 49.8741 85.2344 49.8621 85.2104 49.8381L85.1024 49.9821C84.4304 50.8701 83.7104 51.7461 82.9424 52.6101C82.1744 53.4501 81.3344 54.2301 80.4224 54.9501C80.3264 55.0221 80.2544 55.0581 80.2064 55.0581C80.1104 55.0581 80.0624 55.0101 80.0624 54.9141C80.0624 54.7221 80.2064 54.5061 80.4944 54.2661C81.2384 53.6421 81.9704 52.9461 82.6904 52.1781C83.4104 51.3861 84.0584 50.5581 84.6344 49.6941C84.4184 49.5501 84.3104 49.2621 84.3104 48.8301C84.3104 48.1821 84.5144 47.4861 84.9224 46.7421C85.2104 46.2381 85.5224 45.8661 85.8584 45.6261C86.2184 45.3621 86.5304 45.2301 86.7944 45.2301C87.2984 45.2301 87.5504 45.5301 87.5504 46.1301C87.5504 46.5141 87.4064 46.9941 87.1184 47.5701C86.9984 47.8581 86.7584 48.2301 86.3984 48.6861C86.0624 49.1181 85.7264 49.4301 85.3904 49.6221C85.8944 49.4541 86.5304 49.3461 87.2984 49.2981C88.0904 49.2261 88.7504 49.1901 89.2784 49.1901C89.5904 49.1901 89.9744 49.2861 90.4304 49.4781C90.8864 49.6461 91.1144 49.9581 91.1144 50.4141C91.1144 50.7261 90.9704 51.0621 90.6824 51.4221C90.6104 51.5181 90.4184 51.7461 90.1064 52.1061C89.7944 52.4661 89.4464 52.8981 89.0624 53.4021C88.7024 53.9061 88.3664 54.4101 88.0544 54.9141C87.7424 55.3701 87.4904 55.7901 87.2984 56.1741C87.1304 56.5581 87.0464 56.8821 87.0464 57.1461C87.0464 57.5301 87.2624 57.7221 87.6944 57.7221C88.1984 57.7221 88.8704 57.4821 89.7104 57.0021C90.5504 56.5221 91.4504 55.9101 92.4104 55.1661C93.3944 54.3981 94.2944 53.6061 95.1104 52.7901C95.2064 52.6941 95.2904 52.6461 95.3624 52.6461C95.4584 52.6461 95.5064 52.7061 95.5064 52.8261C95.5064 52.9701 95.4464 53.1021 95.3264 53.2221C94.4864 54.0621 93.5504 54.9261 92.5184 55.8141C91.5104 56.6781 90.4544 57.4101 89.3504 58.0101C88.2704 58.6101 87.2144 58.9101 86.1824 58.9101ZM101.968 47.8581C101.632 47.8581 101.38 47.7501 101.212 47.5341C101.044 47.3181 100.96 47.0901 100.96 46.8501C100.96 46.3701 101.188 45.9021 101.644 45.4461C102.1 44.9661 102.58 44.7261 103.084 44.7261C103.42 44.7261 103.672 44.8341 103.84 45.0501C104.008 45.2661 104.092 45.4941 104.092 45.7341C104.092 46.2381 103.864 46.7181 103.408 47.1741C102.976 47.6301 102.496 47.8581 101.968 47.8581ZM96.4602 58.9101C95.4762 58.9101 94.8042 58.7061 94.4442 58.2981C94.1082 57.8661 93.9402 57.3861 93.9402 56.8581C93.9402 56.4261 94.0122 56.0181 94.1562 55.6341C94.3002 55.2261 94.4202 54.9381 94.5162 54.7701C94.6602 54.5301 94.8522 54.2541 95.0922 53.9421C95.3562 53.6301 95.6442 53.2941 95.9562 52.9341C95.4762 53.3421 95.0202 53.7381 94.5882 54.1221C94.1802 54.5061 93.8442 54.7941 93.5802 54.9861C93.5082 55.0581 93.4362 55.0941 93.3642 55.0941C93.2682 55.0941 93.2202 55.0341 93.2202 54.9141C93.2202 54.7221 93.3522 54.5301 93.6162 54.3381C94.2402 53.8101 94.8402 53.2341 95.4162 52.6101C96.0162 51.9861 96.5802 51.4101 97.1082 50.8821C97.6362 50.3301 98.1042 49.9461 98.5122 49.7301C98.9442 49.4901 99.2922 49.3341 99.5562 49.2621C99.8202 49.1901 100.036 49.1541 100.204 49.1541C100.468 49.1541 100.66 49.2021 100.78 49.2981C100.9 49.3701 100.924 49.4541 100.852 49.5501C100.444 49.9581 100.036 50.4861 99.6282 51.1341C99.2442 51.7581 98.8842 52.4181 98.5482 53.1141C98.2122 53.8101 97.9362 54.4701 97.7202 55.0941C97.5282 55.7181 97.4322 56.2461 97.4322 56.6781C97.4322 57.2781 97.6722 57.5781 98.1522 57.5781C98.6082 57.5781 99.1962 57.3741 99.9162 56.9661C100.66 56.5341 101.428 55.9941 102.22 55.3461C103.036 54.6981 103.792 54.0621 104.488 53.4381C104.584 53.3421 104.668 53.2941 104.74 53.2941C104.86 53.2941 104.92 53.3541 104.92 53.4741C104.944 53.5941 104.92 53.6781 104.848 53.7261C104.056 54.4701 103.156 55.2501 102.148 56.0661C101.164 56.8581 100.168 57.5301 99.1602 58.0821C98.1762 58.6341 97.2762 58.9101 96.4602 58.9101ZM103.824 59.0541C103.584 59.0541 103.296 58.9941 102.96 58.8741C102.624 58.7781 102.288 58.5861 101.952 58.2981C102.216 57.9381 102.6 57.4581 103.104 56.8581C103.584 56.2341 104.1 55.5501 104.652 54.8061C105.204 54.0621 105.72 53.3181 106.2 52.5741C105.816 52.9581 105.396 53.3661 104.94 53.7981C104.484 54.2301 104.028 54.6261 103.572 54.9861C103.476 55.0821 103.368 55.1301 103.248 55.1301C103.152 55.1301 103.104 55.0821 103.104 54.9861C103.104 54.8661 103.2 54.7221 103.392 54.5541C104.064 53.9541 104.808 53.2701 105.624 52.5021C106.464 51.7101 107.076 50.9061 107.46 50.0901C107.58 49.8021 107.64 49.5381 107.64 49.2981C107.64 48.9861 107.58 48.7941 107.46 48.7221C107.364 48.6501 107.316 48.5541 107.316 48.4341C107.316 48.2181 107.424 48.1101 107.64 48.1101C107.76 48.1101 107.856 48.1341 107.928 48.1821C108.192 48.3021 108.444 48.5301 108.684 48.8661C108.924 49.2021 109.044 49.7061 109.044 50.3781C109.044 50.7621 108.996 51.2061 108.9 51.7101C108.804 52.1901 108.636 52.7421 108.396 53.3661C108.756 52.8861 109.116 52.4181 109.476 51.9621C109.86 51.5061 110.208 51.0981 110.52 50.7381C111.168 49.9941 111.816 49.4661 112.464 49.1541C113.136 48.8181 113.736 48.6501 114.264 48.6501C114.888 48.6501 115.392 48.8301 115.776 49.1901C116.16 49.5501 116.352 50.0181 116.352 50.5941C116.352 51.0501 116.232 51.5181 115.992 51.9981C115.92 52.1901 115.752 52.4901 115.488 52.8981C115.224 53.2821 114.936 53.7021 114.624 54.1581C114.312 54.6141 114.024 55.0221 113.76 55.3821C113.448 55.7661 113.232 56.1021 113.112 56.3901C112.992 56.6541 112.932 56.8701 112.932 57.0381C112.932 57.2781 113.064 57.3981 113.328 57.3981C113.664 57.3981 114.132 57.2181 114.732 56.8581C115.092 56.6421 115.5 56.3541 115.956 55.9941C116.436 55.6101 116.904 55.2261 117.36 54.8421C117.84 54.4341 118.224 54.0981 118.512 53.8341C118.608 53.7381 118.692 53.6901 118.764 53.6901C118.86 53.6901 118.908 53.7501 118.908 53.8701C118.908 54.0141 118.848 54.1461 118.728 54.2661C118.008 54.9381 117.168 55.6701 116.208 56.4621C115.272 57.2541 114.348 57.8661 113.436 58.2981C112.692 58.6581 112.008 58.8381 111.384 58.8381C110.856 58.8381 110.436 58.7061 110.124 58.4421C109.812 58.1541 109.656 57.7461 109.656 57.2181C109.656 56.8341 109.752 56.3781 109.944 55.8501C110.184 55.2021 110.52 54.5541 110.952 53.9061C111.408 53.2581 111.876 52.6461 112.356 52.0701C112.86 51.4701 113.292 50.9661 113.652 50.5581C113.964 50.2221 114.12 49.9341 114.12 49.6941C114.12 49.4781 113.976 49.3701 113.688 49.3701C113.4 49.3701 112.968 49.5381 112.392 49.8741C111.84 50.1861 111.216 50.7021 110.52 51.4221C109.536 52.4541 108.672 53.5701 107.928 54.7701C107.184 55.9701 106.332 57.0981 105.372 58.1541C104.844 58.7541 104.328 59.0541 103.824 59.0541ZM127.923 60.2781C127.731 60.2781 127.635 60.1701 127.635 59.9541C127.635 59.9061 127.647 59.8581 127.671 59.8101C127.671 59.7621 127.683 59.7021 127.707 59.6301C127.851 59.0781 128.163 58.3341 128.643 57.3981C129.147 56.4621 129.759 55.4181 130.479 54.2661C131.223 53.0901 132.015 51.8901 132.855 50.6661C132.711 50.1621 132.651 49.7541 132.675 49.4421C132.699 49.2021 132.855 48.9261 133.143 48.6141C133.455 48.2781 133.791 48.0021 134.151 47.7861C134.535 47.5461 134.835 47.4501 135.051 47.4981C135.987 46.2261 136.863 45.0621 137.679 44.0061C138.495 42.9501 139.179 42.1101 139.731 41.4861C140.307 40.8621 140.667 40.5501 140.811 40.5501C141.003 40.5501 141.147 40.6341 141.243 40.8021C141.339 40.9701 141.387 41.1261 141.387 41.2701C141.387 41.2701 141.099 41.6301 140.523 42.3501C139.971 43.0461 139.239 43.9821 138.327 45.1581C137.439 46.3101 136.491 47.5821 135.483 48.9741C135.507 48.9981 135.519 49.0341 135.519 49.0821C135.519 49.1301 135.531 49.1781 135.555 49.2261L136.851 49.1181C138.075 49.0221 139.371 48.8061 140.739 48.4701C142.107 48.1101 143.451 47.6661 144.771 47.1381C146.091 46.5861 147.267 45.9621 148.299 45.2661C149.451 44.4741 150.399 43.6341 151.143 42.7461C151.911 41.8341 152.295 41.0061 152.295 40.2621C152.295 39.5181 151.851 38.9061 150.963 38.4261C150.075 37.9221 148.575 37.6701 146.463 37.6701C145.743 37.6701 144.855 37.7541 143.799 37.9221C142.743 38.0901 141.603 38.3181 140.379 38.6061C139.179 38.8941 137.979 39.2421 136.779 39.6501C135.603 40.0341 134.523 40.4541 133.539 40.9101C132.579 41.3661 131.811 41.8341 131.235 42.3141C130.851 42.6501 130.719 42.9261 130.839 43.1421C130.887 43.2141 130.911 43.2861 130.911 43.3581C130.911 43.4061 130.887 43.4301 130.839 43.4301C130.767 43.4301 130.671 43.3941 130.551 43.3221C130.167 43.0821 129.879 42.7821 129.687 42.4221C129.519 42.0381 129.435 41.6901 129.435 41.3781C129.435 41.0901 129.483 40.8981 129.579 40.8021C130.011 40.1781 130.719 39.5781 131.703 39.0021C132.711 38.4261 133.887 37.8981 135.231 37.4181C136.575 36.9381 138.003 36.5181 139.515 36.1581C141.027 35.7981 142.503 35.5221 143.943 35.3301C145.407 35.1381 146.739 35.0421 147.939 35.0421C148.923 35.0421 149.751 35.1141 150.423 35.2581C151.359 35.4501 152.151 35.9181 152.799 36.6621C153.447 37.3821 153.771 38.2701 153.771 39.3261C153.771 40.3101 153.375 41.3901 152.583 42.5661C151.815 43.7421 150.483 44.8821 148.587 45.9861C147.531 46.6101 146.319 47.1981 144.951 47.7501C143.583 48.2781 142.191 48.7221 140.775 49.0821C139.383 49.4421 138.087 49.6581 136.887 49.7301C136.695 49.7541 136.503 49.7661 136.311 49.7661C136.119 49.7661 135.927 49.7661 135.735 49.7661C136.119 50.7261 136.719 51.7221 137.535 52.7541C138.375 53.7621 139.311 54.7101 140.343 55.5981C141.375 56.4621 142.407 57.1701 143.439 57.7221C144.471 58.2501 145.359 58.5141 146.103 58.5141C146.679 58.5141 147.195 58.3821 147.651 58.1181C148.131 57.8301 148.407 57.4581 148.479 57.0021C148.479 56.9061 148.527 56.8701 148.623 56.8941C148.719 56.8941 148.755 56.9541 148.731 57.0741C148.635 57.9141 148.179 58.5261 147.363 58.9101C146.547 59.2941 145.635 59.4861 144.627 59.4861C143.331 59.4861 142.095 59.2461 140.919 58.7661C139.767 58.2861 138.687 57.6741 137.679 56.9301C136.695 56.1621 135.831 55.3341 135.087 54.4461C134.367 53.5581 133.791 52.7061 133.359 51.8901C132.327 53.4021 131.367 54.8541 130.479 56.2461C129.615 57.6381 129.003 58.7901 128.643 59.7021C128.595 59.8701 128.487 60.0021 128.319 60.0981C128.175 60.2181 128.043 60.2781 127.923 60.2781ZM157.517 47.8581C157.181 47.8581 156.929 47.7501 156.761 47.5341C156.593 47.3181 156.509 47.0901 156.509 46.8501C156.509 46.3701 156.737 45.9021 157.193 45.4461C157.649 44.9661 158.129 44.7261 158.633 44.7261C158.969 44.7261 159.221 44.8341 159.389 45.0501C159.557 45.2661 159.641 45.4941 159.641 45.7341C159.641 46.2381 159.413 46.7181 158.957 47.1741C158.525 47.6301 158.045 47.8581 157.517 47.8581ZM152.009 58.9101C151.025 58.9101 150.353 58.7061 149.993 58.2981C149.657 57.8661 149.489 57.3861 149.489 56.8581C149.489 56.4261 149.561 56.0181 149.705 55.6341C149.849 55.2261 149.969 54.9381 150.065 54.7701C150.209 54.5301 150.401 54.2541 150.641 53.9421C150.905 53.6301 151.193 53.2941 151.505 52.9341C151.025 53.3421 150.569 53.7381 150.137 54.1221C149.729 54.5061 149.393 54.7941 149.129 54.9861C149.057 55.0581 148.985 55.0941 148.913 55.0941C148.817 55.0941 148.769 55.0341 148.769 54.9141C148.769 54.7221 148.901 54.5301 149.165 54.3381C149.789 53.8101 150.389 53.2341 150.965 52.6101C151.565 51.9861 152.129 51.4101 152.657 50.8821C153.185 50.3301 153.653 49.9461 154.061 49.7301C154.493 49.4901 154.841 49.3341 155.105 49.2621C155.369 49.1901 155.585 49.1541 155.753 49.1541C156.017 49.1541 156.209 49.2021 156.329 49.2981C156.449 49.3701 156.473 49.4541 156.401 49.5501C155.993 49.9581 155.585 50.4861 155.177 51.1341C154.793 51.7581 154.433 52.4181 154.097 53.1141C153.761 53.8101 153.485 54.4701 153.269 55.0941C153.077 55.7181 152.981 56.2461 152.981 56.6781C152.981 57.2781 153.221 57.5781 153.701 57.5781C154.157 57.5781 154.745 57.3741 155.465 56.9661C156.209 56.5341 156.977 55.9941 157.769 55.3461C158.585 54.6981 159.341 54.0621 160.037 53.4381C160.133 53.3421 160.217 53.2941 160.289 53.2941C160.409 53.2941 160.469 53.3541 160.469 53.4741C160.493 53.5941 160.469 53.6781 160.397 53.7261C159.605 54.4701 158.705 55.2501 157.697 56.0661C156.713 56.8581 155.717 57.5301 154.709 58.0821C153.725 58.6341 152.825 58.9101 152.009 58.9101ZM162.325 59.1981C161.389 59.1981 160.681 58.9701 160.201 58.5141C159.745 58.0341 159.517 57.4221 159.517 56.6781C159.517 56.2221 159.577 55.7781 159.697 55.3461C159.817 54.9141 159.949 54.5301 160.093 54.1941C159.925 54.3621 159.757 54.5181 159.589 54.6621C159.445 54.7821 159.325 54.8781 159.229 54.9501C159.133 55.0221 159.049 55.0581 158.977 55.0581C158.881 55.0581 158.833 54.9981 158.833 54.8781C158.833 54.7101 158.953 54.5181 159.193 54.3021C160.033 53.6061 160.693 52.9941 161.173 52.4661C161.653 51.9141 162.157 51.4101 162.685 50.9541C163.573 50.1861 164.521 49.5861 165.529 49.1541C166.537 48.7221 167.545 48.5061 168.553 48.5061C169.609 48.5061 170.437 48.7581 171.037 49.2621C171.637 49.7661 171.937 50.5101 171.937 51.4941C171.937 52.0461 171.769 52.6821 171.433 53.4021C171.121 54.1221 170.617 54.8661 169.921 55.6341C169.633 55.9461 169.309 56.2581 168.949 56.5701C168.589 56.8581 168.277 57.0741 168.013 57.2181C169.189 57.0981 170.293 56.6901 171.325 55.9941C172.357 55.2741 173.281 54.5661 174.097 53.8701C174.217 53.7981 174.301 53.7621 174.349 53.7621C174.469 53.7621 174.529 53.8221 174.529 53.9421C174.529 54.0381 174.469 54.1461 174.349 54.2661C173.317 55.2501 172.201 56.0781 171.001 56.7501C169.825 57.4221 168.517 57.7461 167.077 57.7221C166.237 58.1781 165.409 58.5381 164.593 58.8021C163.801 59.0661 163.045 59.1981 162.325 59.1981ZM163.945 58.1901C164.281 58.1901 164.641 58.1301 165.025 58.0101C165.409 57.8901 165.793 57.7341 166.177 57.5421C166.033 57.5421 165.889 57.4701 165.745 57.3261C165.625 57.1821 165.565 56.9901 165.565 56.7501C165.565 56.2701 165.745 55.7781 166.105 55.2741C166.465 54.7701 166.909 54.3381 167.437 53.9781C167.965 53.6181 168.481 53.4381 168.985 53.4381C169.273 53.4381 169.537 53.5221 169.777 53.6901C170.041 53.8341 170.185 54.0381 170.209 54.3021C170.617 53.8461 170.893 53.3541 171.037 52.8261C171.205 52.2981 171.289 51.8061 171.289 51.3501C171.289 50.7261 171.085 50.2581 170.677 49.9461C170.293 49.6101 169.765 49.4421 169.093 49.4421C168.445 49.4421 167.725 49.6701 166.933 50.1261C166.165 50.5821 165.433 51.1701 164.737 51.8901C164.065 52.6101 163.501 53.3901 163.045 54.2301C162.613 55.0701 162.397 55.8741 162.397 56.6421C162.397 57.6741 162.913 58.1901 163.945 58.1901ZM176.134 59.2701C175.174 59.2701 174.334 59.0901 173.614 58.7301C172.87 58.3461 172.33 57.6501 171.994 56.6421C171.97 56.5461 172.006 56.4861 172.102 56.4621C172.174 56.4381 172.222 56.4861 172.246 56.6061C172.486 57.1341 172.798 57.5061 173.182 57.7221C173.566 57.9381 173.986 58.0461 174.442 58.0461C175.21 58.0461 175.882 57.8181 176.458 57.3621C177.058 56.9061 177.586 56.3301 178.042 55.6341C178.522 54.9381 178.942 54.2301 179.302 53.5101C179.686 52.7661 180.046 52.1301 180.382 51.6021C180.91 50.7141 181.534 49.9101 182.254 49.1901C182.998 48.4701 183.67 48.0261 184.27 47.8581C184.126 47.7861 183.946 47.7501 183.73 47.7501C183.13 47.7501 182.47 47.9301 181.75 48.2901C181.03 48.6501 180.298 49.1181 179.554 49.6941C178.834 50.2701 178.126 50.8821 177.43 51.5301C176.758 52.1541 176.134 52.7421 175.558 53.2941C175.006 53.8221 174.562 54.2421 174.226 54.5541C174.034 54.7221 173.89 54.8061 173.794 54.8061C173.698 54.8061 173.65 54.7581 173.65 54.6621C173.65 54.5181 173.71 54.3861 173.83 54.2661C174.55 53.6421 175.294 52.9461 176.062 52.1781C176.83 51.3861 177.61 50.6301 178.402 49.9101C179.194 49.1661 179.998 48.5541 180.814 48.0741C181.63 47.5941 182.458 47.3541 183.298 47.3541C183.394 47.3541 183.478 47.3541 183.55 47.3541C183.646 47.3541 183.742 47.3661 183.838 47.3901C184.102 47.4141 184.342 47.4861 184.558 47.6061C184.798 47.7261 184.87 47.8101 184.774 47.8581C184.222 48.0981 183.79 48.5781 183.478 49.2981C183.166 50.0181 182.878 50.8581 182.614 51.8181C182.35 52.7781 182.026 53.7501 181.642 54.7341C181.282 55.7181 180.754 56.5941 180.058 57.3621C180.394 57.2421 180.922 56.9661 181.642 56.5341C182.362 56.1021 183.154 55.5741 184.018 54.9501C184.882 54.3021 185.686 53.5941 186.43 52.8261C186.526 52.7301 186.622 52.6821 186.718 52.6821C186.838 52.6821 186.898 52.7421 186.898 52.8621C186.898 52.9581 186.85 53.0541 186.754 53.1501C186.106 53.7741 185.386 54.4461 184.594 55.1661C183.802 55.8621 182.938 56.5221 182.002 57.1461C181.09 57.7701 180.142 58.2861 179.158 58.6941C178.174 59.0781 177.166 59.2701 176.134 59.2701Z" fill="black"/>
<g filter="url(#filter0_d_220_2)">
<path d="M124.397 56.056C123.501 52.0131 123.563 47.7457 124.287 43.6685C124.843 40.532 125.906 37.3729 127.325 34.7086C129.712 30.2313 133.103 26.3281 137.228 23.3123C141.353 20.2963 146.097 18.2515 151.078 17.342C156.06 16.4327 161.141 16.6838 165.913 18.0755C170.685 19.4669 175.015 21.9603 178.557 25.3553C182.099 28.7502 184.754 32.9523 186.307 37.6243C187.861 42.2963 188.271 47.3081 187.505 52.2576C186.738 57.2071 182.969 53.3338 180.046 57.5019C184.095 52.4956 188.533 55.1423 189.37 48.8782C190.206 42.6141 189.7 38.492 187.069 32.875C184.438 27.258 180.234 22.5501 174.937 19.2883C169.639 16.0263 163.461 14.3421 157.107 14.4273C150.753 14.5125 144.479 16.3639 139.001 19.7703C133.523 23.1768 129.062 28.0009 126.126 33.6927C123.19 39.3845 122.654 43.0573 122.327 50.1642C122.181 53.3447 123.86 62.38 130.33 70.0114C133.062 73.2324 136.818 75.3916 140.833 76.7013C149.154 79.4158 156.326 79.8785 158.556 79.3195C155.933 79.7989 147.694 79.5155 137.089 74.5704C129.794 71.1691 125.812 62.4482 124.397 56.056Z" fill="black"/>
</g>
<path d="M129.936 91.0425C130.139 91.0531 130.24 91.1491 130.24 91.3305V91.6505H129.12C129.024 91.6505 128.944 91.6345 128.88 91.6025C128.827 91.5598 128.773 91.5065 128.72 91.4425L125.088 86.8505C124.971 86.7118 124.864 86.6265 124.768 86.5945C124.672 86.5518 124.523 86.5305 124.32 86.5305H122.976V91.0105L124 91.0425C124.213 91.0638 124.32 91.1598 124.32 91.3305V91.6505H120.8V91.3305C120.8 91.1598 120.907 91.0638 121.12 91.0425L122.16 91.0105V80.9465L121.12 80.9145C120.917 80.9038 120.816 80.8078 120.816 80.6265V80.3225H124.912C126.139 80.3225 127.093 80.5625 127.776 81.0425C128.459 81.5118 128.8 82.2638 128.8 83.2985C128.8 84.1731 128.501 84.8931 127.904 85.4585C127.307 86.0238 126.533 86.3491 125.584 86.4345C125.723 86.5198 125.84 86.6265 125.936 86.7545L129.328 91.0265L129.936 91.0425ZM124.8 85.9225C125.771 85.9225 126.544 85.6985 127.12 85.2505C127.707 84.8025 128 84.1731 128 83.3625C128 81.7625 126.971 80.9625 124.912 80.9625H122.976V85.9225H124.8ZM138.22 83.5545C139.191 83.5545 139.954 83.8798 140.508 84.5305C141.074 85.1811 141.356 86.0238 141.356 87.0585C141.356 87.2611 141.282 87.3625 141.132 87.3625H135.388C135.388 88.5465 135.634 89.4745 136.124 90.1465C136.615 90.8185 137.351 91.1545 138.332 91.1545C138.727 91.1545 139.138 91.0851 139.564 90.9465C140.002 90.8078 140.343 90.6318 140.588 90.4185C140.674 90.3331 140.759 90.2905 140.844 90.2905C140.919 90.2905 140.972 90.3171 141.004 90.3705L141.212 90.6265C140.935 90.9678 140.508 91.2398 139.932 91.4425C139.367 91.6451 138.812 91.7465 138.268 91.7465C137.084 91.7465 136.178 91.3571 135.548 90.5785C134.93 89.7891 134.62 88.7651 134.62 87.5065C134.62 86.7491 134.764 86.0718 135.052 85.4745C135.351 84.8771 135.772 84.4078 136.316 84.0665C136.86 83.7251 137.495 83.5545 138.22 83.5545ZM138.236 84.1305C137.426 84.1305 136.775 84.3758 136.284 84.8665C135.804 85.3465 135.516 86.0131 135.42 86.8665H140.668C140.668 86.0345 140.444 85.3731 139.996 84.8825C139.559 84.3811 138.972 84.1305 138.236 84.1305ZM152.366 91.0425C152.579 91.0638 152.686 91.1598 152.686 91.3305V91.6505H151.326C151.155 91.6505 151.054 91.5758 151.022 91.4265L150.91 90.4025C150.376 90.9038 149.896 91.2611 149.47 91.4745C149.054 91.6771 148.542 91.7785 147.934 91.7785C147.294 91.7785 146.776 91.5971 146.382 91.2345C145.998 90.8611 145.806 90.3545 145.806 89.7145C145.806 88.8611 146.318 88.2478 147.342 87.8745C148.366 87.5011 149.544 87.3091 150.878 87.2985V86.4665C150.878 85.7198 150.718 85.1545 150.398 84.7705C150.088 84.3758 149.619 84.1785 148.99 84.1785C148.606 84.1785 148.216 84.2638 147.822 84.4345C147.427 84.5945 147.112 84.7918 146.878 85.0265C146.76 85.1438 146.648 85.2025 146.542 85.2025C146.456 85.2025 146.387 85.1545 146.334 85.0585L146.206 84.8185C146.632 84.3918 147.075 84.0771 147.534 83.8745C148.003 83.6611 148.515 83.5545 149.07 83.5545C149.912 83.5545 150.547 83.8211 150.974 84.3545C151.411 84.8771 151.63 85.5811 151.63 86.4665V91.0265L152.366 91.0425ZM150.878 87.8105C149.726 87.8211 148.712 87.9705 147.838 88.2585C146.974 88.5358 146.542 89.0158 146.542 89.6985C146.542 90.1785 146.68 90.5518 146.958 90.8185C147.246 91.0851 147.635 91.2185 148.126 91.2185C148.712 91.2185 149.198 91.1171 149.582 90.9145C149.966 90.7011 150.398 90.3545 150.878 89.8745V87.8105ZM160.105 91.0425C160.318 91.0638 160.425 91.1598 160.425 91.3305V91.6505H157.353V91.3305C157.353 91.1598 157.459 91.0638 157.673 91.0425L158.505 91.0105V80.6425L157.673 80.6105C157.459 80.5891 157.353 80.4931 157.353 80.3225V80.0025H159.273V91.0105L160.105 91.0425ZM180.241 82.6585H179.841C179.638 82.6585 179.526 82.5305 179.505 82.2745L179.441 80.9945H174.273V85.5865H178.785V86.2425H174.273V90.9625H179.441L179.505 89.6985C179.526 89.4318 179.638 89.2985 179.841 89.2985H180.241V91.6505H172.113V91.3305C172.113 91.1491 172.214 91.0531 172.417 91.0425L173.457 91.0105V80.9465L172.417 80.9145C172.203 80.8931 172.097 80.7971 172.097 80.6265V80.3225H180.241V82.6585ZM190.658 89.3145C190.658 90.0611 190.391 90.6585 189.858 91.1065C189.335 91.5545 188.669 91.7785 187.858 91.7785C187.09 91.7785 186.306 91.6291 185.506 91.3305V89.3945H185.89C186.114 89.3945 186.231 89.5225 186.242 89.7785L186.338 90.9625C186.754 91.1331 187.271 91.2185 187.89 91.2185C188.477 91.2185 188.962 91.0585 189.346 90.7385C189.741 90.4185 189.938 89.9865 189.938 89.4425C189.938 89.0051 189.757 88.6745 189.394 88.4505C189.042 88.2158 188.482 87.9865 187.714 87.7625C186.989 87.5598 186.439 87.3091 186.066 87.0105C185.693 86.7011 185.506 86.2691 185.506 85.7145C185.506 85.2878 185.623 84.9145 185.858 84.5945C186.103 84.2638 186.423 84.0131 186.818 83.8425C187.223 83.6611 187.661 83.5705 188.13 83.5705C188.738 83.5705 189.442 83.7091 190.242 83.9865V85.8905H189.858C189.645 85.8905 189.527 85.7625 189.506 85.5065L189.41 84.3545C188.994 84.2158 188.573 84.1465 188.146 84.1465C187.623 84.1465 187.17 84.2851 186.786 84.5625C186.413 84.8398 186.226 85.2078 186.226 85.6665C186.226 85.9545 186.317 86.1945 186.498 86.3865C186.679 86.5785 186.914 86.7385 187.202 86.8665C187.501 86.9838 187.911 87.1171 188.434 87.2665C189.138 87.4691 189.682 87.7305 190.066 88.0505C190.461 88.3598 190.658 88.7811 190.658 89.3145ZM197.806 91.7785C197.241 91.7785 196.814 91.6238 196.526 91.3145C196.238 90.9945 196.094 90.5411 196.094 89.9545V84.5145H194.958C194.894 84.5145 194.841 84.4985 194.798 84.4665C194.766 84.4345 194.75 84.3865 194.75 84.3225V84.0345L196.11 83.9385L196.302 81.0905C196.302 81.0478 196.318 81.0051 196.35 80.9625C196.393 80.9198 196.441 80.8985 196.494 80.8985H196.862V83.9385H199.374V84.5145H196.862V89.9065C196.862 90.3011 196.958 90.6105 197.15 90.8345C197.353 91.0478 197.625 91.1545 197.966 91.1545C198.286 91.1545 198.649 91.0051 199.054 90.7065C199.118 90.6745 199.166 90.6585 199.198 90.6585C199.273 90.6585 199.331 90.6905 199.374 90.7545L199.55 91.0425C199.347 91.2665 199.081 91.4478 198.75 91.5865C198.43 91.7145 198.115 91.7785 197.806 91.7785ZM210.566 91.0425C210.779 91.0638 210.886 91.1598 210.886 91.3305V91.6505H209.526C209.355 91.6505 209.254 91.5758 209.222 91.4265L209.11 90.4025C208.576 90.9038 208.096 91.2611 207.67 91.4745C207.254 91.6771 206.742 91.7785 206.134 91.7785C205.494 91.7785 204.976 91.5971 204.582 91.2345C204.198 90.8611 204.006 90.3545 204.006 89.7145C204.006 88.8611 204.518 88.2478 205.542 87.8745C206.566 87.5011 207.744 87.3091 209.078 87.2985V86.4665C209.078 85.7198 208.918 85.1545 208.598 84.7705C208.288 84.3758 207.819 84.1785 207.19 84.1785C206.806 84.1785 206.416 84.2638 206.022 84.4345C205.627 84.5945 205.312 84.7918 205.078 85.0265C204.96 85.1438 204.848 85.2025 204.742 85.2025C204.656 85.2025 204.587 85.1545 204.534 85.0585L204.406 84.8185C204.832 84.3918 205.275 84.0771 205.734 83.8745C206.203 83.6611 206.715 83.5545 207.27 83.5545C208.112 83.5545 208.747 83.8211 209.174 84.3545C209.611 84.8771 209.83 85.5811 209.83 86.4665V91.0265L210.566 91.0425ZM209.078 87.8105C207.926 87.8211 206.912 87.9705 206.038 88.2585C205.174 88.5358 204.742 89.0158 204.742 89.6985C204.742 90.1785 204.88 90.5518 205.158 90.8185C205.446 91.0851 205.835 91.2185 206.326 91.2185C206.912 91.2185 207.398 91.1171 207.782 90.9145C208.166 90.7011 208.598 90.3545 209.078 89.8745V87.8105ZM218.097 91.7785C217.531 91.7785 217.105 91.6238 216.817 91.3145C216.529 90.9945 216.385 90.5411 216.385 89.9545V84.5145H215.249C215.185 84.5145 215.131 84.4985 215.089 84.4665C215.057 84.4345 215.041 84.3865 215.041 84.3225V84.0345L216.401 83.9385L216.593 81.0905C216.593 81.0478 216.609 81.0051 216.641 80.9625C216.683 80.9198 216.731 80.8985 216.785 80.8985H217.153V83.9385H219.665V84.5145H217.153V89.9065C217.153 90.3011 217.249 90.6105 217.441 90.8345C217.643 91.0478 217.915 91.1545 218.257 91.1545C218.577 91.1545 218.939 91.0051 219.345 90.7065C219.409 90.6745 219.457 90.6585 219.489 90.6585C219.563 90.6585 219.622 90.6905 219.665 90.7545L219.841 91.0425C219.638 91.2665 219.371 91.4478 219.041 91.5865C218.721 91.7145 218.406 91.7785 218.097 91.7785ZM227.864 83.5545C228.835 83.5545 229.597 83.8798 230.152 84.5305C230.717 85.1811 231 86.0238 231 87.0585C231 87.2611 230.925 87.3625 230.776 87.3625H225.032C225.032 88.5465 225.277 89.4745 225.768 90.1465C226.259 90.8185 226.995 91.1545 227.976 91.1545C228.371 91.1545 228.781 91.0851 229.208 90.9465C229.645 90.8078 229.987 90.6318 230.232 90.4185C230.317 90.3331 230.403 90.2905 230.488 90.2905C230.563 90.2905 230.616 90.3171 230.648 90.3705L230.856 90.6265C230.579 90.9678 230.152 91.2398 229.576 91.4425C229.011 91.6451 228.456 91.7465 227.912 91.7465C226.728 91.7465 225.821 91.3571 225.192 90.5785C224.573 89.7891 224.264 88.7651 224.264 87.5065C224.264 86.7491 224.408 86.0718 224.696 85.4745C224.995 84.8771 225.416 84.4078 225.96 84.0665C226.504 83.7251 227.139 83.5545 227.864 83.5545ZM227.88 84.1305C227.069 84.1305 226.419 84.3758 225.928 84.8665C225.448 85.3465 225.16 86.0131 225.064 86.8665H230.312C230.312 86.0345 230.088 85.3731 229.64 84.8825C229.203 84.3811 228.616 84.1305 227.88 84.1305Z" fill="black"/>
<defs>
<filter id="filter0_d_220_2" x="119.319" y="11.4242" width="75.4208" height="73.1042" filterUnits="userSpaceOnUse" color-interpolation-filters="sRGB">
<feFlood flood-opacity="0" result="BackgroundImageFix"/>
<feColorMatrix in="SourceAlpha" type="matrix" values="0 0 0 0 0 0 0 0 0 0 0 0 0 0 0 0 0 0 127 0" result="hardAlpha"/>
<feOffset dx="1" dy="1"/>
<feGaussianBlur stdDeviation="2"/>
<feComposite in2="hardAlpha" operator="out"/>
<feColorMatrix type="matrix" values="0 0 0 0 0 0 0 0 0 0 0 0 0 0 0 0 0 0 0.25 0"/>
<feBlend mode="normal" in2="BackgroundImageFix" result="effect1_dropShadow_220_2"/>
<feBlend mode="normal" in="SourceGraphic" in2="effect1_dropShadow_220_2" result="shape"/>
</filter>
</defs>
</svg>
