<svg width="268" height="234" viewBox="0 0 268 234" fill="none" xmlns="http://www.w3.org/2000/svg">
<path d="M111.503 153.635C110.997 153.635 110.744 153.35 110.744 152.781C110.744 152.654 110.776 152.528 110.839 152.401C110.839 152.275 110.871 152.116 110.934 151.927C111.314 150.471 112.136 148.51 113.401 146.043C114.73 143.575 116.344 140.823 118.242 137.786C120.203 134.686 122.291 131.522 124.505 128.295C124.126 126.967 123.967 125.891 124.031 125.069C124.094 124.436 124.505 123.708 125.265 122.886C126.087 122 126.973 121.273 127.922 120.703C128.934 120.07 129.725 119.817 130.294 119.944C132.762 116.591 135.071 113.522 137.222 110.738C139.374 107.954 141.177 105.74 142.632 104.095C144.151 102.45 145.1 101.627 145.479 101.627C145.985 101.627 146.365 101.849 146.618 102.292C146.871 102.735 146.998 103.146 146.998 103.525C146.998 103.525 146.238 104.474 144.72 106.373C143.265 108.207 141.335 110.675 138.931 113.775C136.59 116.812 134.091 120.165 131.433 123.835C131.497 123.898 131.528 123.993 131.528 124.12C131.528 124.246 131.56 124.373 131.623 124.499L135.04 124.215C138.266 123.961 141.683 123.392 145.289 122.506C148.896 121.557 152.439 120.387 155.919 118.995C159.398 117.54 162.499 115.895 165.219 114.06C168.256 111.972 170.755 109.757 172.717 107.416C174.741 105.012 175.754 102.829 175.754 100.868C175.754 98.9067 174.583 97.2933 172.242 96.028C169.901 94.6993 165.947 94.035 160.379 94.035C158.481 94.035 156.14 94.2564 153.356 94.6993C150.572 95.1422 147.567 95.7432 144.34 96.5025C141.177 97.2617 138.013 98.1791 134.85 99.2547C131.75 100.267 128.903 101.374 126.308 102.576C123.778 103.778 121.753 105.012 120.235 106.278C119.222 107.163 118.874 107.891 119.191 108.46C119.317 108.65 119.38 108.84 119.38 109.03C119.38 109.156 119.317 109.22 119.191 109.22C119.001 109.22 118.748 109.125 118.431 108.935C117.419 108.302 116.66 107.511 116.154 106.562C115.711 105.55 115.489 104.633 115.489 103.81C115.489 103.051 115.616 102.545 115.869 102.292C117.008 100.647 118.874 99.0649 121.468 97.5464C124.126 96.028 127.226 94.636 130.769 93.3706C134.312 92.1052 138.077 90.998 142.063 90.049C146.049 89.0999 149.94 88.3723 153.736 87.8662C157.595 87.36 161.107 87.1069 164.27 87.1069C166.864 87.1069 169.047 87.2967 170.819 87.6764C173.286 88.1825 175.374 89.4163 177.082 91.3776C178.791 93.2757 179.645 95.6167 179.645 98.4006C179.645 100.995 178.601 103.842 176.513 106.942C174.488 110.042 170.977 113.047 165.979 115.958C163.195 117.603 160 119.153 156.393 120.608C152.787 122 149.117 123.171 145.384 124.12C141.715 125.069 138.298 125.638 135.135 125.828C134.628 125.891 134.122 125.923 133.616 125.923C133.11 125.923 132.604 125.923 132.098 125.923C133.11 128.454 134.692 131.079 136.843 133.8C139.057 136.457 141.525 138.956 144.245 141.297C146.966 143.575 149.687 145.442 152.407 146.897C155.128 148.289 157.469 148.985 159.43 148.985C160.949 148.985 162.309 148.637 163.511 147.941C164.776 147.181 165.504 146.201 165.694 144.999C165.694 144.746 165.82 144.651 166.073 144.714C166.327 144.714 166.421 144.872 166.358 145.188C166.105 147.403 164.903 149.016 162.752 150.029C160.601 151.041 158.196 151.547 155.539 151.547C152.122 151.547 148.864 150.914 145.764 149.649C142.727 148.384 139.88 146.77 137.222 144.809C134.628 142.784 132.351 140.601 130.389 138.26C128.491 135.919 126.973 133.673 125.834 131.522C123.113 135.508 120.583 139.336 118.242 143.006C115.964 146.675 114.351 149.712 113.401 152.116C113.275 152.559 112.99 152.907 112.547 153.16C112.168 153.477 111.82 153.635 111.503 153.635Z" fill="black"/>
<path d="M89.0928 158.285C88.7765 158.285 88.8081 158 89.1877 157.431C89.6306 156.861 90.6746 155.849 92.3196 154.394C95.2933 151.736 97.4761 148.952 98.868 146.042C100.323 143.132 101.051 140.348 101.051 137.69C101.051 133.704 99.5323 130.32 96.4954 127.536C93.5217 124.689 89.2194 123.265 83.5884 123.265C80.1085 123.265 76.1858 123.929 71.8202 125.258C69.2894 126.017 67.5812 126.397 66.6954 126.397C66.1892 126.397 65.9361 126.27 65.9361 126.017C65.9361 125.827 66.2841 125.385 66.9801 124.689C68.5618 123.233 70.8712 121.335 73.9081 118.994C76.9451 116.59 80.4249 113.996 84.3476 111.212C88.3336 108.428 92.4778 105.644 96.7801 102.861C101.146 100.013 105.416 97.3877 109.592 94.9835C113.768 92.5792 117.596 90.6179 121.076 89.0994C124.619 87.5177 127.529 86.6002 129.807 86.3472H130.281C130.977 86.3472 131.325 86.5686 131.325 87.0115C131.325 87.7075 130.819 88.2769 129.807 88.7198C124.239 90.6811 118.64 93.1487 113.009 96.1223C107.378 99.096 101.968 102.291 96.7801 105.708C91.592 109.061 86.8468 112.351 82.5444 115.578C78.2421 118.741 74.5725 121.462 71.5355 123.74C77.6094 121.778 83.1771 120.797 88.2387 120.797C92.8574 120.797 96.8117 121.493 100.102 122.885C103.392 124.277 105.923 126.144 107.694 128.485C109.466 130.762 110.351 133.325 110.351 136.172C110.351 139.652 108.865 143.258 105.891 146.991C102.981 150.724 98.2986 154.141 91.8451 157.241C91.2756 157.494 90.7378 157.715 90.2317 157.905C89.7255 158.158 89.3459 158.285 89.0928 158.285ZM46.196 158C45.9429 158 45.8164 157.684 45.8164 157.051C45.8164 156.735 45.848 156.355 45.9113 155.912C45.9746 155.533 46.1328 155.026 46.3858 154.394C46.892 152.938 47.7778 150.851 49.0432 148.13C50.3085 145.409 51.7954 142.278 53.5037 138.734C55.2752 135.191 57.1733 131.49 59.1979 127.631C61.2858 123.771 63.4054 119.943 65.5565 116.147C67.7077 112.351 69.764 108.84 71.7253 105.613C73.7499 102.323 75.5531 99.5389 77.1349 97.2612C78.7799 94.9835 80.1085 93.4334 81.1209 92.6109C81.7536 92.1047 82.671 91.8516 83.8731 91.8516C84.5691 91.8516 85.2018 91.9782 85.7712 92.2312C86.3406 92.4843 86.6253 92.9272 86.6253 93.5599C86.6253 94.1293 86.309 94.8253 85.6763 95.6478C84.1578 97.6092 82.4179 99.9818 80.4565 102.766C78.5584 105.486 76.5654 108.365 74.4775 111.402C72.4529 114.439 70.4283 117.476 68.4037 120.513C66.4423 123.55 64.6391 126.365 62.9941 128.959C60.9695 132.123 58.8816 135.508 56.7304 139.114C54.6425 142.657 52.7128 146.01 50.9412 149.174C49.233 152.337 47.9359 154.931 47.0502 156.956C46.7971 157.652 46.5124 158 46.196 158Z" fill="black"/>
<g filter="url(#filter0_d_1236_113)">
<path d="M31.253 118.164C30.7083 107.262 32.8659 96.1884 36.8108 86.0099C39.5406 78.9665 43.3827 72.1262 47.8187 66.5323C55.6112 56.7064 65.5929 48.7232 76.9635 43.2236C88.3345 37.7238 100.777 34.8603 113.294 34.8629C125.811 34.8662 138.053 37.7352 149.038 43.2403C160.023 48.7447 169.445 56.7326 176.548 66.5621C183.651 76.3913 188.238 87.7886 189.939 99.8394C191.641 111.89 190.41 124.259 186.347 135.953C182.283 147.647 174.84 136.554 165.879 145.389C177.95 135.016 187.565 143.424 192.383 128.565C197.201 113.705 197.802 103.457 193.903 88.63C190.003 73.8027 181.873 60.4865 170.441 50.2006C159.009 39.914 144.735 33.0726 129.248 30.4554C113.76 27.8383 97.6823 29.5513 82.8488 35.3993C68.0151 41.2474 55.0228 50.9943 45.354 63.5291C35.6852 76.0639 32.7498 84.7561 28.7955 101.892C27.0508 109.452 27.09 131.638 38.9181 152.8C44.3497 162.518 53.0954 169.905 62.9208 175.14C81.5792 185.081 98.3483 189.249 103.928 188.887C97.3374 188.887 77.4294 184.536 53.8395 167.797C37.9545 156.526 32.0575 134.269 31.253 118.164Z" fill="black"/>
</g>
<path d="M260.766 215.029C263.005 215.029 264.764 215.779 266.043 217.28C267.347 218.781 267.999 220.725 267.999 223.112C267.999 223.579 267.827 223.813 267.483 223.813H254.233C254.233 226.544 254.799 228.685 255.931 230.235C257.063 231.785 258.76 232.56 261.024 232.56C261.934 232.56 262.882 232.4 263.866 232.08C264.875 231.76 265.662 231.354 266.228 230.862C266.425 230.665 266.622 230.567 266.818 230.567C266.991 230.567 267.114 230.628 267.187 230.751L267.667 231.342C267.028 232.129 266.043 232.757 264.715 233.224C263.411 233.692 262.131 233.925 260.876 233.925C258.145 233.925 256.054 233.027 254.602 231.231C253.175 229.41 252.461 227.048 252.461 224.145C252.461 222.398 252.794 220.836 253.458 219.458C254.147 218.08 255.119 216.997 256.374 216.21C257.628 215.422 259.092 215.029 260.766 215.029ZM260.802 216.357C258.932 216.357 257.432 216.923 256.3 218.055C255.193 219.162 254.528 220.7 254.307 222.669H266.412C266.412 220.749 265.896 219.224 264.862 218.092C263.853 216.936 262.5 216.357 260.802 216.357Z" fill="black"/>
<path d="M241.994 233.999C240.69 233.999 239.705 233.642 239.041 232.929C238.377 232.19 238.045 231.145 238.045 229.791V217.243H235.424C235.276 217.243 235.153 217.206 235.055 217.132C234.981 217.058 234.944 216.948 234.944 216.8V216.136L238.081 215.914L238.524 209.345C238.524 209.246 238.561 209.148 238.635 209.049C238.733 208.951 238.844 208.902 238.967 208.902H239.816V215.914H245.611V217.243H239.816V229.681C239.816 230.591 240.038 231.305 240.48 231.821C240.948 232.313 241.575 232.559 242.363 232.559C243.101 232.559 243.937 232.215 244.872 231.526C245.02 231.452 245.131 231.415 245.205 231.415C245.377 231.415 245.512 231.489 245.611 231.637L246.017 232.301C245.549 232.818 244.934 233.236 244.171 233.556C243.433 233.851 242.707 233.999 241.994 233.999Z" fill="black"/>
<path d="M228.381 232.301C228.873 232.351 229.119 232.572 229.119 232.966V233.704H225.982C225.588 233.704 225.354 233.532 225.28 233.187L225.022 230.825C223.792 231.982 222.684 232.806 221.7 233.298C220.741 233.765 219.56 233.999 218.157 233.999C216.681 233.999 215.488 233.581 214.577 232.744C213.691 231.883 213.249 230.714 213.249 229.238C213.249 227.27 214.43 225.855 216.792 224.994C219.154 224.133 221.873 223.69 224.948 223.665V221.746C224.948 220.024 224.579 218.72 223.841 217.834C223.127 216.923 222.045 216.468 220.593 216.468C219.707 216.468 218.809 216.665 217.899 217.059C216.988 217.428 216.263 217.883 215.721 218.424C215.451 218.695 215.192 218.83 214.946 218.83C214.749 218.83 214.589 218.72 214.466 218.498L214.171 217.944C215.155 216.96 216.177 216.234 217.235 215.767C218.317 215.275 219.498 215.029 220.778 215.029C222.721 215.029 224.185 215.644 225.17 216.874C226.178 218.08 226.683 219.704 226.683 221.746V232.265L228.381 232.301ZM224.948 224.846C222.291 224.871 219.953 225.215 217.936 225.88C215.943 226.519 214.946 227.626 214.946 229.201C214.946 230.308 215.266 231.17 215.906 231.785C216.57 232.4 217.468 232.707 218.6 232.707C219.953 232.707 221.073 232.474 221.959 232.006C222.844 231.514 223.841 230.714 224.948 229.607V224.846Z" fill="black"/>
<path d="M202.71 233.999C201.406 233.999 200.422 233.642 199.757 232.929C199.093 232.19 198.761 231.145 198.761 229.791V217.243H196.14C195.993 217.243 195.87 217.206 195.771 217.132C195.698 217.058 195.661 216.948 195.661 216.8V216.136L198.798 215.914L199.241 209.345C199.241 209.246 199.278 209.148 199.351 209.049C199.45 208.951 199.561 208.902 199.684 208.902H200.532V215.914H206.327V217.243H200.532V229.681C200.532 230.591 200.754 231.305 201.197 231.821C201.664 232.313 202.292 232.559 203.079 232.559C203.817 232.559 204.654 232.215 205.589 231.526C205.736 231.452 205.847 231.415 205.921 231.415C206.093 231.415 206.228 231.489 206.327 231.637L206.733 232.301C206.265 232.818 205.65 233.236 204.887 233.556C204.149 233.851 203.423 233.999 202.71 233.999Z" fill="black"/>
<path d="M189.981 228.314C189.981 230.037 189.366 231.415 188.135 232.448C186.93 233.481 185.392 233.998 183.522 233.998C181.75 233.998 179.942 233.654 178.097 232.965V228.499H178.982C179.499 228.499 179.77 228.794 179.794 229.385L180.016 232.116C180.975 232.51 182.169 232.706 183.596 232.706C184.949 232.706 186.069 232.337 186.954 231.599C187.865 230.861 188.32 229.865 188.32 228.61C188.32 227.601 187.902 226.838 187.065 226.321C186.253 225.78 184.961 225.251 183.19 224.734C181.517 224.267 180.25 223.689 179.388 223C178.527 222.286 178.097 221.29 178.097 220.01C178.097 219.026 178.367 218.165 178.909 217.427C179.475 216.664 180.213 216.086 181.123 215.692C182.058 215.274 183.067 215.065 184.149 215.065C185.552 215.065 187.176 215.385 189.021 216.024V220.416H188.135C187.643 220.416 187.373 220.121 187.323 219.53L187.102 216.873C186.142 216.553 185.171 216.393 184.186 216.393C182.981 216.393 181.935 216.713 181.049 217.353C180.188 217.993 179.758 218.842 179.758 219.9C179.758 220.564 179.967 221.117 180.385 221.56C180.803 222.003 181.345 222.372 182.009 222.668C182.698 222.938 183.645 223.246 184.851 223.59C186.475 224.058 187.729 224.661 188.615 225.399C189.526 226.112 189.981 227.084 189.981 228.314Z" fill="black"/>
<path d="M169.71 212.961H168.787C168.32 212.961 168.062 212.666 168.012 212.075L167.865 209.123H155.944V219.715H166.352V221.228H155.944V232.116H167.865L168.012 229.2C168.062 228.585 168.32 228.278 168.787 228.278H169.71V233.703H150.961V232.965C150.961 232.547 151.195 232.325 151.662 232.301L154.061 232.227V209.012L151.662 208.938C151.17 208.889 150.924 208.668 150.924 208.274V207.573H169.71V212.961Z" fill="black"/>
<path d="M127.161 232.3C127.653 232.35 127.899 232.571 127.899 232.965V233.703H120.813V232.965C120.813 232.571 121.059 232.35 121.551 232.3L123.47 232.227V208.311L121.551 208.237C121.059 208.188 120.813 207.966 120.813 207.573V206.834H125.242V232.227L127.161 232.3Z" fill="black"/>
<path d="M113.069 232.301C113.561 232.351 113.807 232.572 113.807 232.966V233.704H110.67C110.276 233.704 110.042 233.532 109.968 233.187L109.71 230.825C108.48 231.982 107.372 232.806 106.388 233.298C105.429 233.765 104.248 233.999 102.845 233.999C101.369 233.999 100.176 233.581 99.2652 232.744C98.3794 231.883 97.9365 230.714 97.9365 229.238C97.9365 227.27 99.1176 225.855 101.48 224.994C103.842 224.133 106.561 223.69 109.636 223.665V221.746C109.636 220.024 109.267 218.72 108.529 217.834C107.815 216.923 106.733 216.468 105.281 216.468C104.395 216.468 103.497 216.665 102.587 217.059C101.676 217.428 100.951 217.883 100.409 218.424C100.139 218.695 99.8803 218.83 99.6343 218.83C99.4374 218.83 99.2775 218.72 99.1545 218.498L98.8592 217.944C99.8434 216.96 100.865 216.234 101.923 215.767C103.005 215.275 104.186 215.029 105.466 215.029C107.409 215.029 108.873 215.644 109.858 216.874C110.866 218.08 111.371 219.704 111.371 221.746V232.265L113.069 232.301ZM109.636 224.846C106.979 224.871 104.641 225.215 102.624 225.88C100.631 226.519 99.6343 227.626 99.6343 229.201C99.6343 230.308 99.9541 231.17 100.594 231.785C101.258 232.4 102.156 232.707 103.288 232.707C104.641 232.707 105.761 232.474 106.647 232.006C107.532 231.514 108.529 230.714 109.636 229.607V224.846Z" fill="black"/>
<path d="M84.1996 215.029C86.4387 215.029 88.1979 215.779 89.4774 217.28C90.7814 218.781 91.4335 220.725 91.4335 223.112C91.4335 223.579 91.2612 223.813 90.9168 223.813H77.6671C77.6671 226.544 78.233 228.685 79.3648 230.235C80.4966 231.785 82.1944 232.56 84.458 232.56C85.3684 232.56 86.3157 232.4 87.2999 232.08C88.3087 231.76 89.096 231.354 89.6619 230.862C89.8588 230.665 90.0556 230.567 90.2524 230.567C90.4247 230.567 90.5477 230.628 90.6215 230.751L91.1013 231.342C90.4616 232.129 89.4774 232.757 88.1487 233.224C86.8447 233.692 85.5652 233.925 84.3104 233.925C81.5792 233.925 79.4878 233.027 78.0361 231.231C76.609 229.41 75.8955 227.048 75.8955 224.145C75.8955 222.398 76.2277 220.836 76.892 219.458C77.5809 218.08 78.5528 216.997 79.8077 216.21C81.0625 215.422 82.5265 215.029 84.1996 215.029ZM84.2366 216.357C82.3666 216.357 80.8657 216.923 79.7339 218.055C78.6266 219.162 77.9623 220.7 77.7409 222.669H89.8465C89.8465 220.749 89.3298 219.224 88.2964 218.092C87.2876 216.936 85.9343 216.357 84.2366 216.357Z" fill="black"/>
<path d="M68.8499 232.301C69.3174 232.325 69.5512 232.547 69.5512 232.965V233.703H66.9677C66.7462 233.703 66.5617 233.666 66.4141 233.592C66.291 233.494 66.168 233.371 66.045 233.223L57.667 222.631C57.3964 222.311 57.1503 222.114 56.9289 222.04C56.7074 221.942 56.363 221.893 55.8955 221.893H52.7953V232.227L55.1573 232.301C55.6494 232.35 55.8955 232.571 55.8955 232.965V233.703H47.7759V232.965C47.7759 232.571 48.0219 232.35 48.514 232.301L50.913 232.227V209.012L48.514 208.938C48.0465 208.914 47.8128 208.692 47.8128 208.274V207.573H57.261C60.0906 207.573 62.2927 208.126 63.8675 209.234C65.4422 210.316 66.2295 212.051 66.2295 214.438C66.2295 216.455 65.5406 218.116 64.1627 219.42C62.7848 220.724 61.001 221.474 58.8112 221.671C59.131 221.868 59.4017 222.114 59.6231 222.409L67.4475 232.264L68.8499 232.301ZM57.0027 220.49C59.2417 220.49 61.0256 219.974 62.3543 218.94C63.7075 217.907 64.3842 216.455 64.3842 214.585C64.3842 210.894 62.0098 209.049 57.261 209.049H52.7953V220.49H57.0027Z" fill="black"/>
<defs>
<filter id="filter0_d_1236_113" x="24.9688" y="26.2637" width="176.492" height="167.645" filterUnits="userSpaceOnUse" color-interpolation-filters="sRGB">
<feFlood flood-opacity="0" result="BackgroundImageFix"/>
<feColorMatrix in="SourceAlpha" type="matrix" values="0 0 0 0 0 0 0 0 0 0 0 0 0 0 0 0 0 0 127 0" result="hardAlpha"/>
<feOffset dx="1" dy="1"/>
<feGaussianBlur stdDeviation="2"/>
<feComposite in2="hardAlpha" operator="out"/>
<feColorMatrix type="matrix" values="0 0 0 0 0 0 0 0 0 0 0 0 0 0 0 0 0 0 0.25 0"/>
<feBlend mode="normal" in2="BackgroundImageFix" result="effect1_dropShadow_1236_113"/>
<feBlend mode="normal" in="SourceGraphic" in2="effect1_dropShadow_1236_113" result="shape"/>
</filter>
</defs>
</svg>
