<svg xmlns="http://www.w3.org/2000/svg" width="120" height="124" viewBox="0 0 120 124" fill="none">
  <path d="M58.645 80.803C58.3787 80.803 58.2456 80.6533 58.2456 80.3538C58.2456 80.2873 58.2623 80.2207 58.2955 80.1542C58.2955 80.0876 58.3122 80.0044 58.3455 79.9046C58.5451 79.1392 58.9777 78.1077 59.6432 76.8099C60.342 75.5121 61.1906 74.0646 62.1889 72.4674C63.2204 70.8368 64.3185 69.173 65.4832 67.4759C65.2836 66.7771 65.2004 66.2114 65.2336 65.7788C65.2669 65.4461 65.4832 65.0634 65.8825 64.6308C66.3151 64.1649 66.781 63.7823 67.2801 63.4828C67.8125 63.15 68.2285 63.0169 68.528 63.0835C69.8258 61.3198 71.0403 59.7059 72.1717 58.2418C73.3031 56.7776 74.2515 55.613 75.0168 54.7478C75.8155 53.8826 76.3146 53.45 76.5143 53.45C76.7805 53.45 76.9801 53.5665 77.1132 53.7994C77.2463 54.0323 77.3129 54.2486 77.3129 54.4483C77.3129 54.4483 76.9136 54.9474 76.115 55.9457C75.3496 56.9107 74.3347 58.2085 73.0702 59.839C71.839 61.4363 70.5246 63.1999 69.127 65.1299C69.1602 65.1632 69.1769 65.2131 69.1769 65.2797C69.1769 65.3462 69.1935 65.4128 69.2268 65.4793L71.0237 65.3296C72.7208 65.1965 74.5177 64.897 76.4144 64.4312C78.3112 63.932 80.1747 63.3164 82.0048 62.5843C83.835 61.819 85.4656 60.9538 86.8964 59.9888C88.4937 58.8907 89.8081 57.726 90.8397 56.4948C91.9045 55.2303 92.4369 54.0822 92.4369 53.0507C92.4369 52.0191 91.8213 51.1706 90.5901 50.5051C89.3589 49.8063 87.2791 49.4569 84.3508 49.4569C83.3525 49.4569 82.1213 49.5733 80.6572 49.8063C79.193 50.0392 77.6124 50.3553 75.9153 50.7546C74.2515 51.1539 72.5877 51.6364 70.9239 52.2021C69.2933 52.7346 67.7959 53.3169 66.4316 53.9491C65.1005 54.5814 64.0357 55.2303 63.2371 55.8958C62.7046 56.3617 62.5216 56.7443 62.688 57.0438C62.7546 57.1437 62.7878 57.2435 62.7878 57.3433C62.7878 57.4099 62.7546 57.4431 62.688 57.4431C62.5882 57.4431 62.4551 57.3932 62.2887 57.2934C61.7563 56.9606 61.357 56.5447 61.0908 56.0455C60.8578 55.5131 60.7414 55.0306 60.7414 54.598C60.7414 54.1987 60.8079 53.9325 60.941 53.7994C61.54 52.9342 62.5216 52.1023 63.886 51.3037C65.2836 50.5051 66.9141 49.773 68.7776 49.1075C70.641 48.4419 72.621 47.8596 74.7174 47.3605C76.8138 46.8613 78.8602 46.4786 80.8568 46.2124C82.8867 45.9462 84.7335 45.8131 86.3973 45.8131C87.7616 45.8131 88.9097 45.9129 89.8414 46.1126C91.1392 46.3788 92.2373 47.0277 93.1357 48.0593C94.0342 49.0575 94.4834 50.2888 94.4834 51.7529C94.4834 53.1172 93.9344 54.6147 92.8363 56.2452C91.7714 57.8757 89.9246 59.4564 87.2958 60.9871C85.8316 61.8522 84.1512 62.6675 82.2544 63.4329C80.3577 64.1649 78.4277 64.7806 76.4644 65.2797C74.5343 65.7788 72.7374 66.0783 71.0736 66.1781C70.8074 66.2114 70.5412 66.2281 70.275 66.2281C70.0088 66.2281 69.7426 66.2281 69.4764 66.2281C70.0088 67.5591 70.8407 68.9401 71.9721 70.371C73.1367 71.7686 74.4345 73.083 75.8654 74.3142C77.2963 75.5121 78.7271 76.4938 80.158 77.2591C81.5889 77.9912 82.8201 78.3572 83.8517 78.3572C84.6503 78.3572 85.3657 78.1742 85.998 77.8082C86.6635 77.4089 87.0462 76.8931 87.146 76.2608C87.146 76.1277 87.2126 76.0778 87.3457 76.1111C87.4788 76.1111 87.5287 76.1943 87.4954 76.3607C87.3623 77.5253 86.7301 78.3739 85.5987 78.9063C84.4673 79.4387 83.2028 79.7049 81.8052 79.7049C80.0083 79.7049 78.2945 79.3722 76.664 78.7066C75.0668 78.0411 73.5693 77.1926 72.1717 76.161C70.8074 75.0962 69.6095 73.9481 68.5779 72.7169C67.5796 71.4857 66.781 70.3044 66.182 69.173C64.7511 71.2694 63.4201 73.2826 62.1889 75.2126C60.9909 77.1427 60.1424 78.7399 59.6432 80.0044C59.5767 80.2373 59.4269 80.4204 59.194 80.5535C58.9944 80.7198 58.8113 80.803 58.645 80.803Z" fill="white"/>
  <path d="M46.8573 83.2489C46.6909 83.2489 46.7076 83.0991 46.9072 82.7996C47.1401 82.5001 47.6892 81.9677 48.5544 81.2024C50.1184 79.8048 51.2664 78.3406 51.9985 76.8099C52.7638 75.2792 53.1465 73.8151 53.1465 72.4175C53.1465 70.3211 52.3479 68.5408 50.7506 67.0766C49.1866 65.5792 46.9238 64.8305 43.9623 64.8305C42.1321 64.8305 40.0689 65.1799 37.7729 65.8787C36.4418 66.278 35.5434 66.4777 35.0775 66.4777C34.8113 66.4777 34.6782 66.4111 34.6782 66.278C34.6782 66.1782 34.8612 65.9452 35.2273 65.5792C36.0592 64.8138 37.2737 63.8156 38.871 62.5843C40.4683 61.3198 42.2985 59.9555 44.3616 58.4914C46.458 57.0272 48.6376 55.5631 50.9004 54.0989C53.1964 52.6015 55.4426 51.2205 57.6388 49.956C59.835 48.6915 61.8482 47.66 63.6784 46.8613C65.5419 46.0294 67.0726 45.5469 68.2705 45.4138H68.5201C68.8861 45.4138 69.0692 45.5303 69.0692 45.7632C69.0692 46.1293 68.803 46.4287 68.2705 46.6617C65.3422 47.6932 62.3973 48.991 59.4357 50.555C56.4741 52.119 53.629 53.7994 50.9004 55.5963C48.1717 57.36 45.676 59.0903 43.4132 60.7874C41.1504 62.4512 39.2204 63.8821 37.6232 65.0801C40.8177 64.0485 43.746 63.5327 46.4081 63.5327C48.8372 63.5327 50.917 63.8987 52.6474 64.6308C54.3777 65.3629 55.7088 66.3445 56.6405 67.5758C57.5722 68.7737 58.0381 70.1214 58.0381 71.6188C58.0381 73.449 57.2561 75.3458 55.6921 77.3091C54.1614 79.2724 51.699 81.0693 48.3048 82.6998C48.0053 82.8329 47.7225 82.9494 47.4563 83.0492C47.1901 83.1823 46.9904 83.2489 46.8573 83.2489ZM24.296 83.0991C24.1629 83.0991 24.0964 82.9327 24.0964 82.6C24.0964 82.4336 24.113 82.2339 24.1463 82.001C24.1796 81.8013 24.2628 81.5351 24.3959 81.2024C24.6621 80.437 25.1279 79.3389 25.7935 77.908C26.459 76.4772 27.241 74.83 28.1394 72.9665C29.0712 71.103 30.0695 69.1564 31.1343 67.1265C32.2324 65.0967 33.3472 63.0835 34.4785 61.0869C35.6099 59.0903 36.6914 57.2435 37.723 55.5464C38.7878 53.8161 39.7362 52.3519 40.5681 51.154C41.4333 49.956 42.1321 49.1408 42.6645 48.7082C42.9973 48.442 43.4798 48.3088 44.112 48.3088C44.478 48.3088 44.8108 48.3754 45.1103 48.5085C45.4098 48.6416 45.5595 48.8745 45.5595 49.2073C45.5595 49.5068 45.3931 49.8728 45.0604 50.3054C44.2618 51.337 43.3467 52.5848 42.3151 54.049C41.3168 55.4799 40.2686 56.9939 39.1705 58.5912C38.1057 60.1885 37.0408 61.7857 35.976 63.383C34.9444 64.9802 33.996 66.461 33.1309 67.8253C32.066 69.4891 30.9679 71.2694 29.8365 73.1662C28.7384 75.0296 27.7235 76.7933 26.7917 78.4571C25.8933 80.1209 25.2111 81.4852 24.7453 82.5501C24.6122 82.9161 24.4624 83.0991 24.296 83.0991Z" fill="white"/>
  <g filter="url(#filter0_d_1122_6)">
    <path d="M16.4375 62.1477C16.151 56.4135 17.2858 50.5895 19.3605 45.2362C20.7963 41.5318 22.817 37.9342 25.1501 34.9921C29.2485 29.8243 34.4983 25.6256 40.4786 22.7331C46.4591 19.8405 53.0033 18.3345 59.5863 18.3358C66.1696 18.3376 72.6082 19.8465 78.3858 22.7419C84.1631 25.6369 89.1186 29.838 92.8546 35.0078C96.5903 40.1774 99.0025 46.1717 99.8974 52.5098C100.792 58.8478 100.145 65.353 98.0078 71.5035C95.8704 77.654 91.9558 71.8194 87.2433 76.4665C93.5919 71.0108 98.6485 75.433 101.183 67.6177C103.717 59.8025 104.033 54.4126 101.982 46.6143C99.9308 38.816 95.6551 31.8124 89.6426 26.4026C83.6299 20.9924 76.1228 17.3943 67.9771 16.0178C59.8315 14.6413 51.3755 15.5422 43.5739 18.618C35.7722 21.6937 28.939 26.82 23.8538 33.4126C18.7686 40.0052 17.2247 44.5768 15.1449 53.5891C14.2274 57.5653 14.248 69.2338 20.4689 80.3639C23.3256 85.4751 27.9253 89.3601 33.0929 92.1134C42.9062 97.342 51.7258 99.5343 54.6604 99.3439C51.1941 99.3439 40.7236 97.0552 28.3167 88.2518C19.9621 82.3237 16.8606 70.6177 16.4375 62.1477Z" fill="white"/>
  </g>
  <path d="M116.195 113.092C117.373 113.092 118.298 113.487 118.971 114.277C119.657 115.066 120 116.088 120 117.344C120 117.589 119.909 117.712 119.728 117.712H112.76C112.76 119.149 113.057 120.275 113.653 121.09C114.248 121.905 115.141 122.313 116.331 122.313C116.81 122.313 117.308 122.229 117.826 122.06C118.357 121.892 118.771 121.679 119.068 121.42C119.172 121.316 119.275 121.265 119.379 121.265C119.469 121.265 119.534 121.297 119.573 121.362L119.825 121.672C119.489 122.086 118.971 122.416 118.272 122.662C117.587 122.908 116.914 123.031 116.254 123.031C114.817 123.031 113.717 122.559 112.954 121.614C112.203 120.656 111.828 119.414 111.828 117.887C111.828 116.968 112.003 116.147 112.352 115.422C112.714 114.697 113.226 114.128 113.886 113.714C114.546 113.3 115.316 113.092 116.195 113.092ZM116.215 113.791C115.231 113.791 114.442 114.089 113.847 114.684C113.264 115.267 112.915 116.075 112.799 117.111H119.165C119.165 116.101 118.894 115.299 118.35 114.704C117.82 114.095 117.108 113.791 116.215 113.791Z" fill="white"/>
  <path d="M108.228 123.07C107.542 123.07 107.024 122.882 106.675 122.507C106.326 122.119 106.151 121.569 106.151 120.857V114.257H104.773C104.695 114.257 104.63 114.238 104.579 114.199C104.54 114.16 104.52 114.102 104.52 114.024V113.675L106.17 113.558L106.403 110.103C106.403 110.051 106.423 110 106.461 109.948C106.513 109.896 106.571 109.87 106.636 109.87H107.083V113.558H110.13V114.257H107.083V120.799C107.083 121.278 107.199 121.653 107.432 121.925C107.678 122.183 108.008 122.313 108.422 122.313C108.81 122.313 109.25 122.132 109.742 121.769C109.82 121.73 109.878 121.711 109.917 121.711C110.007 121.711 110.078 121.75 110.13 121.827L110.344 122.177C110.098 122.449 109.774 122.669 109.373 122.837C108.985 122.992 108.603 123.07 108.228 123.07Z" fill="white"/>
  <path d="M102.973 122.177C103.232 122.203 103.362 122.319 103.362 122.526V122.915H101.712C101.505 122.915 101.382 122.824 101.343 122.643L101.207 121.4C100.56 122.009 99.9776 122.442 99.46 122.701C98.9553 122.947 98.3342 123.07 97.5965 123.07C96.8201 123.07 96.1925 122.85 95.7137 122.41C95.2478 121.957 95.0149 121.342 95.0149 120.566C95.0149 119.531 95.636 118.786 96.8783 118.334C98.1206 117.881 99.5506 117.648 101.168 117.635V116.625C101.168 115.719 100.974 115.034 100.586 114.568C100.211 114.089 99.6412 113.85 98.8777 113.85C98.4118 113.85 97.9395 113.953 97.4607 114.16C96.9819 114.354 96.6001 114.594 96.3154 114.878C96.1731 115.021 96.0372 115.092 95.9078 115.092C95.8042 115.092 95.7201 115.034 95.6554 114.917L95.5001 114.626C96.0178 114.108 96.5548 113.727 97.1113 113.481C97.6807 113.222 98.3018 113.092 98.9747 113.092C99.997 113.092 100.767 113.416 101.285 114.063C101.815 114.697 102.081 115.551 102.081 116.625V122.157L102.973 122.177ZM101.168 118.256C99.7706 118.269 98.5412 118.45 97.4801 118.799C96.4319 119.136 95.9078 119.718 95.9078 120.546C95.9078 121.129 96.076 121.582 96.4125 121.905C96.7619 122.229 97.2342 122.39 97.8295 122.39C98.5412 122.39 99.13 122.267 99.5959 122.022C100.062 121.763 100.586 121.342 101.168 120.76V118.256Z" fill="white"/>
  <path d="M91.3759 123.07C90.69 123.07 90.1724 122.882 89.823 122.507C89.4736 122.119 89.2989 121.569 89.2989 120.857V114.257H87.9207C87.843 114.257 87.7783 114.238 87.7266 114.199C87.6877 114.16 87.6683 114.102 87.6683 114.024V113.675L89.3183 113.558L89.5512 110.103C89.5512 110.051 89.5706 110 89.6094 109.948C89.6612 109.896 89.7194 109.87 89.7841 109.87H90.2306V113.558H93.2781V114.257H90.2306V120.799C90.2306 121.278 90.3471 121.653 90.58 121.925C90.8259 122.183 91.1559 122.313 91.57 122.313C91.9582 122.313 92.3982 122.132 92.8899 121.769C92.9676 121.73 93.0258 121.711 93.0646 121.711C93.1552 121.711 93.2264 121.75 93.2781 121.827L93.4917 122.177C93.2458 122.449 92.9223 122.669 92.5211 122.837C92.1329 122.992 91.7511 123.07 91.3759 123.07Z" fill="white"/>
  <path d="M86.586 120.08C86.586 120.986 86.2625 121.711 85.6154 122.255C84.9813 122.798 84.1725 123.07 83.189 123.07C82.2573 123.07 81.3062 122.889 80.3356 122.526V120.178H80.8015C81.0732 120.178 81.2156 120.333 81.2285 120.643L81.345 122.08C81.8497 122.287 82.4773 122.39 83.2279 122.39C83.9396 122.39 84.5284 122.196 84.9943 121.808C85.4731 121.42 85.7125 120.896 85.7125 120.236C85.7125 119.705 85.4925 119.304 85.0525 119.032C84.6255 118.748 83.9461 118.469 83.0143 118.198C82.1344 117.952 81.4679 117.648 81.015 117.285C80.5621 116.91 80.3356 116.386 80.3356 115.713C80.3356 115.195 80.4779 114.742 80.7626 114.354C81.0603 113.953 81.4485 113.649 81.9273 113.442C82.4191 113.222 82.9496 113.112 83.519 113.112C84.2566 113.112 85.1107 113.28 86.0813 113.617V115.927H85.6154C85.3566 115.927 85.2143 115.771 85.1884 115.461L85.0719 114.063C84.5672 113.895 84.0561 113.811 83.5384 113.811C82.9043 113.811 82.3544 113.979 81.8885 114.315C81.4356 114.652 81.2091 115.098 81.2091 115.655C81.2091 116.004 81.3191 116.295 81.5391 116.528C81.7591 116.761 82.0438 116.955 82.3932 117.111C82.7555 117.253 83.2537 117.415 83.8878 117.596C84.7419 117.842 85.4019 118.159 85.8678 118.547C86.3466 118.922 86.586 119.433 86.586 120.08Z" fill="white"/>
  <path d="M77.8302 112.005H77.3449C77.0991 112.005 76.9632 111.85 76.9373 111.54L76.8597 109.987H70.5899V115.558H76.0638V116.354H70.5899V122.08H76.8597L76.9373 120.546C76.9632 120.223 77.0991 120.061 77.3449 120.061H77.8302V122.915H67.9694V122.526C67.9694 122.306 68.0923 122.19 68.3382 122.177L69.5999 122.138V109.928L68.3382 109.89C68.0794 109.864 67.95 109.747 67.95 109.54V109.171H77.8302V112.005Z" fill="white"/>
  <path d="M61.1656 122.177C61.4245 122.203 61.5539 122.319 61.5539 122.526V122.915H57.8269V122.526C57.8269 122.319 57.9563 122.203 58.2152 122.177L59.2245 122.138V109.56L58.2152 109.521C57.9563 109.495 57.8269 109.379 57.8269 109.171V108.783H60.1563V122.138L61.1656 122.177Z" fill="white"/>
  <path d="M55.6587 122.177C55.9175 122.203 56.0469 122.319 56.0469 122.526V122.915H54.397C54.1899 122.915 54.067 122.824 54.0282 122.643L53.8923 121.4C53.2452 122.009 52.6629 122.442 52.1453 122.701C51.6406 122.947 51.0194 123.07 50.2818 123.07C49.5054 123.07 48.8777 122.85 48.3989 122.41C47.9331 121.957 47.7001 121.342 47.7001 120.566C47.7001 119.531 48.3213 118.786 49.5636 118.334C50.8059 117.881 52.2359 117.648 53.8535 117.635V116.625C53.8535 115.719 53.6593 115.034 53.2711 114.568C52.8958 114.089 52.3265 113.85 51.5629 113.85C51.0971 113.85 50.6247 113.953 50.1459 114.16C49.6671 114.354 49.2854 114.594 49.0007 114.878C48.8583 115.021 48.7225 115.092 48.593 115.092C48.4895 115.092 48.4054 115.034 48.3407 114.917L48.1854 114.626C48.703 114.108 49.2401 113.727 49.7965 113.481C50.3659 113.222 50.9871 113.092 51.66 113.092C52.6823 113.092 53.4523 113.416 53.9699 114.063C54.5005 114.697 54.7658 115.551 54.7658 116.625V122.157L55.6587 122.177ZM53.8535 118.256C52.4559 118.269 51.2265 118.45 50.1653 118.799C49.1171 119.136 48.593 119.718 48.593 120.546C48.593 121.129 48.7613 121.582 49.0977 121.905C49.4471 122.229 49.9195 122.39 50.5147 122.39C51.2265 122.39 51.8153 122.267 52.2812 122.022C52.747 121.763 53.2711 121.342 53.8535 120.76V118.256Z" fill="white"/>
  <path d="M42.3801 113.092C43.5577 113.092 44.483 113.487 45.1559 114.277C45.8418 115.066 46.1847 116.088 46.1847 117.344C46.1847 117.589 46.0941 117.712 45.913 117.712H38.9444C38.9444 119.149 39.242 120.275 39.8373 121.09C40.4326 121.905 41.3255 122.313 42.516 122.313C42.9948 122.313 43.493 122.229 44.0107 122.06C44.5412 121.892 44.9553 121.679 45.253 121.42C45.3565 121.316 45.46 121.265 45.5636 121.265C45.6541 121.265 45.7188 121.297 45.7577 121.362L46.01 121.672C45.6736 122.086 45.1559 122.416 44.4571 122.662C43.7713 122.908 43.0983 123.031 42.4384 123.031C41.0019 123.031 39.902 122.559 39.1385 121.614C38.3879 120.656 38.0126 119.414 38.0126 117.887C38.0126 116.968 38.1873 116.147 38.5367 115.422C38.8991 114.697 39.4102 114.128 40.0702 113.714C40.7302 113.3 41.5002 113.092 42.3801 113.092ZM42.3995 113.791C41.4161 113.791 40.6267 114.089 40.0314 114.684C39.4491 115.267 39.0997 116.075 38.9832 117.111H45.35C45.35 116.101 45.0783 115.299 44.5348 114.704C44.0042 114.095 43.2925 113.791 42.3995 113.791Z" fill="white"/>
  <path d="M36.2117 122.177C36.4576 122.19 36.5805 122.306 36.5805 122.526V122.915H35.2217C35.1052 122.915 35.0082 122.895 34.9305 122.856C34.8658 122.805 34.8011 122.74 34.7364 122.662L30.3301 117.091C30.1878 116.923 30.0584 116.819 29.9419 116.781C29.8254 116.729 29.6442 116.703 29.3984 116.703H27.7678V122.138L29.0102 122.177C29.269 122.203 29.3984 122.319 29.3984 122.526V122.915H25.1279V122.526C25.1279 122.319 25.2573 122.203 25.5162 122.177L26.7779 122.138V109.928L25.5162 109.89C25.2703 109.877 25.1473 109.76 25.1473 109.54V109.171H30.1166C31.6048 109.171 32.763 109.463 33.5912 110.045C34.4194 110.614 34.8335 111.527 34.8335 112.782C34.8335 113.843 34.4711 114.717 33.7465 115.402C33.0218 116.088 32.0836 116.483 30.9319 116.586C31.1001 116.69 31.2424 116.819 31.3589 116.975L35.4741 122.157L36.2117 122.177ZM29.9807 115.965C31.1583 115.965 32.0965 115.694 32.7953 115.15C33.5071 114.607 33.8629 113.843 33.8629 112.86C33.8629 110.918 32.6142 109.948 30.1166 109.948H27.7678V115.965H29.9807Z" fill="white"/>
  <defs>
    <filter id="filter0_d_1122_6" x="11.7102" y="12.391" width="96.6168" height="91.9643" filterUnits="userSpaceOnUse" color-interpolation-filters="sRGB">
      <feFlood flood-opacity="0" result="BackgroundImageFix"/>
      <feColorMatrix in="SourceAlpha" type="matrix" values="0 0 0 0 0 0 0 0 0 0 0 0 0 0 0 0 0 0 127 0" result="hardAlpha"/>
      <feOffset dx="1" dy="1"/>
      <feGaussianBlur stdDeviation="2"/>
      <feComposite in2="hardAlpha" operator="out"/>
      <feColorMatrix type="matrix" values="0 0 0 0 0 0 0 0 0 0 0 0 0 0 0 0 0 0 0.25 0"/>
      <feBlend mode="normal" in2="BackgroundImageFix" result="effect1_dropShadow_1122_6"/>
      <feBlend mode="normal" in="SourceGraphic" in2="effect1_dropShadow_1122_6" result="shape"/>
    </filter>
  </defs>
</svg>